<svg xmlns="http://www.w3.org/2000/svg" viewBox="0 0 111.56 206.05"><defs><style>.cls-1{fill:#809038;}</style></defs><g id="Layer_2" data-name="Layer 2"><g id="Layer_8" data-name="Layer 8"><path class="cls-1" d="M68.53,206.05V11.73a11.74,11.74,0,0,0-23.47,0V206.05Z"/><path class="cls-1" d="M56.79,87.79H19.55A19.58,19.58,0,0,1,0,68.23V22.82a11.74,11.74,0,0,1,23.47,0v41.5H56.79a11.74,11.74,0,1,1,0,23.47Z"/><path class="cls-1" d="M92,129.5H56.79a11.74,11.74,0,0,1,0-23.47H88.1V62.62a11.73,11.73,0,1,1,23.46,0v47.32A19.58,19.58,0,0,1,92,129.5Z"/></g></g></svg>