<svg xmlns="http://www.w3.org/2000/svg" viewBox="0 0 214.27 258.02"><defs><style>.cls-1{fill:#64702c;}.cls-2{fill:none;stroke:#3f461c;stroke-linecap:round;stroke-linejoin:round;stroke-width:2.03px;}</style></defs><g id="Layer_2" data-name="Layer 2"><g id="Ref"><path class="cls-1" d="M64.56,108.32,0,172.88S64.56,190,64.56,108.32Z"/><path class="cls-1" d="M64.56,108.32V17S6.77,50.53,64.56,108.32Z"/><path class="cls-1" d="M64.56,258s94.75-54.95,0-149.7V258"/><path class="cls-1" d="M170.42,214.18S198.56,108.32,64.56,108.32L170.42,214.18"/><path class="cls-1" d="M214.27,108.32s-55-94.75-149.71,0H214.27"/><path class="cls-1" d="M170.42,2.46S64.56-25.68,64.56,108.32L170.42,2.46"/><path class="cls-2" d="M64.56,108.32s65,10.62,94.71,66.06"/><polyline class="cls-2" points="147.65 137.33 127.88 137.33 127.88 166.88"/><polyline class="cls-2" points="135.64 131.6 120.11 131.6 120.11 147.46"/><polyline class="cls-2" points="106.67 116.69 92.07 116.69 92.07 128.87"/><path class="cls-2" d="M64.56,108.32S118,69.87,178.24,88.06"/><polyline class="cls-2" points="143.83 70.09 129.85 84.07 150.74 104.96"/><polyline class="cls-2" points="131.28 74.52 120.3 85.5 131.52 96.72"/><polyline class="cls-2" points="100.26 84.47 89.94 94.79 98.54 103.4"/><path class="cls-2" d="M64.56,108.32s10.62-65,66.07-94.71"/><polyline class="cls-2" points="93.58 25.23 93.58 45.01 123.12 45.01"/><polyline class="cls-2" points="87.84 37.24 87.84 52.77 103.7 52.77"/><polyline class="cls-2" points="72.94 66.21 72.94 80.81 85.11 80.81"/><path class="cls-2" d="M64.56,108.32s38.73,53.27,20.85,113.57"/><polyline class="cls-2" points="103.21 187.38 89.15 173.48 68.37 194.48"/><polyline class="cls-2" points="98.71 174.86 87.67 163.94 76.51 175.22"/><polyline class="cls-2" points="88.6 143.89 78.22 133.62 69.66 142.27"/></g></g></svg>