<svg xmlns="http://www.w3.org/2000/svg" viewBox="0 0 158.87 39.52"><defs><style>.cls-1{fill:#fff;}.cls-2{fill:#000005;}.cls-3{fill:none;stroke:#000005;stroke-miterlimit:10;stroke-width:1.14px;}</style></defs><g id="Layer_2" data-name="Layer 2"><g id="Layer_6" data-name="Layer 6"><path class="cls-1" d="M39.75,4h0a4,4,0,0,1,4-4H97.17a16,16,0,0,1,16,16V38.27H1.53V12.12a4,4,0,0,1,4-4H35.71A4,4,0,0,0,39.75,4Z"/><path class="cls-1" d="M121.51,38.27V26.46a4.55,4.55,0,1,1,9.1,0V38.27Z"/><path class="cls-1" d="M135.64,38.27V30a4.55,4.55,0,0,1,9.1,0v8.25Z"/><path class="cls-1" d="M149.77,38.27V33.59a4.55,4.55,0,0,1,9.1,0v4.68Z"/><polygon class="cls-2" points="72.11 39.52 72.11 30.09 56.06 39.52 72.11 39.52"/><polygon class="cls-2" points="58.1 39.52 58.1 30.09 42.05 39.52 58.1 39.52"/><polygon class="cls-2" points="44.08 39.52 44.08 30.09 28.03 39.52 44.08 39.52"/><polygon class="cls-2" points="30.07 39.52 30.07 30.09 14.02 39.52 30.07 39.52"/><polygon class="cls-2" points="16.05 39.52 16.05 30.09 0 39.52 16.05 39.52"/><rect class="cls-2" x="7.89" y="12.25" width="10.02" height="4.38" rx="2.19" transform="translate(25.8 28.88) rotate(-180)"/><path class="cls-3" d="M79.07,5.28s5.35,13.85,26.34,13.85"/><path class="cls-2" d="M63.6,21.25,50,19.66a5.06,5.06,0,0,1-4.48-5V11.88a5.06,5.06,0,0,1,4.65-5.05L63.78,5.72a5.07,5.07,0,0,1,5.47,5.05v5.45A5.06,5.06,0,0,1,63.6,21.25Z"/></g></g></svg>