<svg xmlns="http://www.w3.org/2000/svg" viewBox="0 0 55.9 64"><defs><style>.cls-1{fill:#1d1d1b;fill-rule:evenodd;}</style></defs><g id="Layer_2" data-name="Layer 2"><g id="Layer_1-2" data-name="Layer 1"><path class="cls-1" d="M50.85,20.08c-2.14,6.62-6.59,10.93-15,11.3-1.44,2.3-2.55,4.93-3.93,7.3a16.14,16.14,0,0,1,3,9.73,15.42,15.42,0,0,1-3.54,9.18c.93.52,1.85.82,2,1.8s-1.19,3.73-1.81,4.24c-1.4,1.13-3.72-.62-5.1-1.34-7.61-3.95-15.35-7.92-23.22-12.08C2,49.53.16,48.85,0,47.62a4.11,4.11,0,0,1,.87-2.35c.35-.68.68-1.58,1.33-1.89A3.2,3.2,0,0,1,5,43.85C7.31,37.24,12,32.57,20.73,32.71c1.36-2.14,2.36-4.64,3.68-6.82A16.33,16.33,0,0,1,21,16.16a15.91,15.91,0,0,1,3.53-9.73c-1-.55-2-1.06-2-2.12A10.23,10.23,0,0,1,24.26.39,2.27,2.27,0,0,1,26.14.07,20.6,20.6,0,0,1,30,2C37.2,5.86,45,9.91,52.66,13.8c1.3.67,3.05,1.45,3.21,2.51s-.49,1.7-.94,2.59-.82,1.73-1.57,1.89A3.42,3.42,0,0,1,50.85,20.08Zm-26-2.43c.28,3.61,2.44,6.06,4.32,8.08-.95,1.78-1.87,3.6-2.83,5.41a46.38,46.38,0,0,1-2.9,5.34C15.66,34.28,9.51,39,8,45.19c6.89,3.55,13.7,7.17,20.64,10.67a11.9,11.9,0,0,0,3.06-8.79,11.17,11.17,0,0,0-2.83-6.83c-.43-.51-1.46-1.38-1.49-1.8,0-.25.52-1,.71-1.33,1.7-3.38,3.18-6.47,4.94-9.42A12,12,0,0,0,48.5,19.06C41.75,15.37,34.79,11.9,27.94,8.31A12,12,0,0,0,24.88,17.65Z"/><path class="cls-1" d="M25.75,15Q35,19.6,44,24.47c-.84,1.77-2.87,2.78-5,3.22a11.77,11.77,0,0,1-6.91-.78c-3.93-1.73-8.22-6.36-6.59-11.62C25.54,15.19,25.52,15.06,25.75,15Z"/><path class="cls-1" d="M25.67,53.9a4.22,4.22,0,0,1-2-.79c-3.1-1.65-6.47-3.35-9.65-5A25.71,25.71,0,0,1,10.21,46c.25-.66,1-.74,1.57-1,3.75-2,7.83-4,11.69-6,.09,0,.14-.19.31-.16.65.11.61,2.68.71,3.61C24.9,46.09,25.5,50.63,25.67,53.9Z"/></g></g></svg>