<svg xmlns="http://www.w3.org/2000/svg" viewBox="0 0 97.58 147.64"><defs><style>.cls-1{fill:#876340;}.cls-2{fill:#fff;}.cls-3{fill:#231f20;}.cls-4{fill:#a97c50;}.cls-5{fill:#e51491;}.cls-6{fill:#000005;}.cls-7{fill:none;stroke:#000005;stroke-linecap:round;stroke-linejoin:round;stroke-width:0.77px;}</style></defs><g id="Layer_2" data-name="Layer 2"><g id="Layer_8" data-name="Layer 8"><path class="cls-1" d="M30.51,132.14v0l-24.3,13.2v2.28H33.65v-2a1.37,1.37,0,0,1,2.73,0v2h4.94v-15.5Z"/><path class="cls-2" d="M34.68,142.39a12.93,12.93,0,0,1-11.06-6.49L6.21,145.36v2.28H41.32v-7.2A12.52,12.52,0,0,1,34.68,142.39Z"/><path class="cls-1" d="M67.07,132.14v0l24.3,13.2v2.28H63.93v-2a1.37,1.37,0,0,0-2.73,0v2H56.26v-15.5Z"/><path class="cls-2" d="M62.9,142.39A12.93,12.93,0,0,0,74,135.9l17.41,9.46v2.28H56.26v-7.2A12.52,12.52,0,0,0,62.9,142.39Z"/><path class="cls-2" d="M30.48,126.76l5.28-54.05H61.82l5.28,54.05,5.38,6.9L55,141.81V90.72a6.16,6.16,0,0,0-6.16-6.16h0a6.16,6.16,0,0,0-6.16,6.16v51.09L25.1,133.66Z"/><path class="cls-3" d="M38.73,16.15H58.85l1.81-5.27A10.88,10.88,0,0,0,49.78,0h-2A10.88,10.88,0,0,0,36.92,10.88Z"/><rect class="cls-4" x="38.82" y="16.15" width="19.95" height="12.84" transform="translate(97.58 45.14) rotate(-180)"/><polygon class="cls-2" points="27.55 77.22 70.03 77.22 86.76 33.5 10.82 33.5 27.55 77.22"/><polygon class="cls-2" points="5.88 86.95 9.72 86.91 34.67 32.75 5.88 32.75 5.88 86.95"/><polygon class="cls-2" points="91.7 86.95 87.86 86.91 62.91 32.75 91.7 32.75 91.7 86.95"/><path class="cls-2" d="M5.89,29H91.69a0,0,0,0,1,0,0v8.8A2.65,2.65,0,0,1,89,40.44H8.54a2.65,2.65,0,0,1-2.65-2.65V29a0,0,0,0,1,0,0Z" transform="translate(97.58 69.43) rotate(180)"/><polygon class="cls-1" points="5.88 68.75 5.88 86.95 9.72 86.91 18.09 68.75 5.88 68.75"/><polygon class="cls-1" points="79.5 68.75 87.86 86.91 91.7 86.95 91.7 68.75 79.5 68.75"/><path class="cls-1" d="M16.62,82.44H2.27A2.72,2.72,0,0,0,0,85.12v5.2l4.64,6.42A2.57,2.57,0,0,0,7.48,99.3a2.67,2.67,0,0,0,2.31-2.7V89.81a2,2,0,0,1,2-2h0a2,2,0,0,1,2,2v3.67a2.28,2.28,0,0,0,2.52,2.27,2.38,2.38,0,0,0,2.05-2.4V84.68A2.28,2.28,0,0,0,16.62,82.44Z"/><path class="cls-1" d="M81,82.44H95.31a2.72,2.72,0,0,1,2.27,2.68v5.2l-4.64,6.42A2.57,2.57,0,0,1,90.1,99.3a2.67,2.67,0,0,1-2.31-2.7V89.81a2,2,0,0,0-2-2h0a2,2,0,0,0-2,2v3.67a2.28,2.28,0,0,1-2.52,2.27,2.38,2.38,0,0,1-2-2.4V84.68A2.28,2.28,0,0,1,81,82.44Z"/><rect class="cls-4" x="41.83" y="8.07" width="13.92" height="9.31"/><rect class="cls-5" x="35.78" y="28.99" width="26.02" height="43.72"/><rect class="cls-2" x="2.19" y="65.86" width="19.22" height="4.79"/><rect class="cls-2" x="76.18" y="65.86" width="19.22" height="4.79"/><rect class="cls-4" x="38.82" y="19.03" width="19.95" height="21.18" rx="9.97"/><path class="cls-6" d="M40.65,17.2a4.07,4.07,0,0,0-1,2.63,4.36,4.36,0,0,0,8.72,0,4.07,4.07,0,0,0-1-2.63Z"/><path class="cls-6" d="M50.74,17.2a4,4,0,0,0-1,2.63,4.36,4.36,0,0,0,8.71,0,4,4,0,0,0-1-2.63Z"/><line class="cls-7" x1="37.56" y1="19.28" x2="60.38" y2="19.28"/></g></g></svg>