<svg xmlns="http://www.w3.org/2000/svg" xmlns:xlink="http://www.w3.org/1999/xlink" viewBox="0 0 449.19 121.69"><defs><style>.cls-1,.cls-10,.cls-11,.cls-12,.cls-13,.cls-14,.cls-15,.cls-16,.cls-17,.cls-18,.cls-19,.cls-20,.cls-25,.cls-26,.cls-5,.cls-8,.cls-9{fill:none;}.cls-2{fill:#707070;}.cls-3{fill:#fff;}.cls-4{clip-path:url(#clip-path);}.cls-10,.cls-11,.cls-12,.cls-13,.cls-14,.cls-15,.cls-16,.cls-17,.cls-18,.cls-19,.cls-20,.cls-21,.cls-5,.cls-7,.cls-8,.cls-9{stroke:#707070;}.cls-10,.cls-11,.cls-12,.cls-13,.cls-14,.cls-15,.cls-16,.cls-17,.cls-18,.cls-19,.cls-20,.cls-5,.cls-7,.cls-8,.cls-9{stroke-linecap:round;stroke-linejoin:round;}.cls-5{stroke-width:0.95px;}.cls-6{fill:#575757;}.cls-7{fill:#999;}.cls-8{stroke-width:0.96px;}.cls-9{stroke-width:0.97px;}.cls-10{stroke-width:0.99px;}.cls-12{stroke-width:1.01px;}.cls-13{stroke-width:1.03px;}.cls-14{stroke-width:1.04px;}.cls-15{stroke-width:1.05px;}.cls-16{stroke-width:1.07px;}.cls-17{stroke-width:1.08px;}.cls-18{stroke-width:1.09px;}.cls-19{stroke-width:1.1px;}.cls-20,.cls-21,.cls-25{stroke-width:1.12px;}.cls-21{fill:#f5f5f5;}.cls-21,.cls-25,.cls-26{stroke-miterlimit:10;}.cls-22{fill:#404040;}.cls-23{fill:#0c0101;}.cls-24{fill:#b5f930;}.cls-25,.cls-26{stroke:#000;}.cls-26{stroke-width:0.73px;}.cls-27{fill:#333;}</style><clipPath id="clip-path" transform="translate(0 0.47)"><path class="cls-1" d="M9.92,97.09l-8-10.65a9.34,9.34,0,0,1,4-14.33L192.06.6a8.94,8.94,0,0,1,3.23-.6h93.62a8.84,8.84,0,0,1,2.17.27L442.22,37.83a9.26,9.26,0,0,1,7,9v6.67a9.28,9.28,0,0,1-5,8.25L371.66,99.7a9,9,0,0,1-4.18,1H17.17A9.07,9.07,0,0,1,9.92,97.09Z"/></clipPath></defs><g id="Layer_2" data-name="Layer 2"><g id="Layer_2-2" data-name="Layer 2"><circle cx="83.93" cy="84.18" r="30.92"/><polygon class="cls-2" points="392.39 27.31 406.29 12.76 417.46 13.91 410.72 32.03 392.39 27.31"/><path class="cls-2" d="M406.47,12.78l10.33,1.06L410.43,31,393.3,26.58l13.17-13.8m-.36-1-14.62,15.3,19.53,5L418.11,13l-12-1.23Z" transform="translate(0 0.47)"/><path class="cls-3" d="M9.92,97.09l-8-10.65a9.34,9.34,0,0,1,4-14.33L192.06.6a8.94,8.94,0,0,1,3.23-.6h93.62a8.84,8.84,0,0,1,2.17.27L442.22,37.83a9.26,9.26,0,0,1,7,9v6.67a9.28,9.28,0,0,1-5,8.25L371.66,99.7a9,9,0,0,1-4.18,1H17.17A9.07,9.07,0,0,1,9.92,97.09Z" transform="translate(0 0.47)"/><g class="cls-4"><polyline class="cls-5" points="256.69 0.47 256.69 38.27 221.67 85.56 141.21 85.56 95.92 35.92"/></g><path class="cls-6" d="M385.33,92.55,371.66,99.7a9,9,0,0,1-4.18,1H17.17a9.07,9.07,0,0,1-7.25-3.64L6.5,92.55Z" transform="translate(0 0.47)"/><polygon class="cls-7" points="263.86 7.78 299.19 8.54 299.32 20.2 302.17 31.08 263.86 32.6 263.86 7.78"/><path class="cls-6" d="M347.58,56l40.12-1.49L405.52,82,385.36,92.54l-13.7,7.16a9,9,0,0,1-4.18,1H317.85l-6-10.43Z" transform="translate(0 0.47)"/><line class="cls-5" x1="114.02" y1="85.56" x2="324.48" y2="85.56"/><line class="cls-5" x1="383.89" y1="24.53" x2="383.89" y2="31.68"/><line class="cls-8" x1="387.12" y1="25.28" x2="387.12" y2="32.28"/><line class="cls-9" x1="390.35" y1="26.04" x2="390.35" y2="32.88"/><line class="cls-10" x1="393.58" y1="26.8" x2="393.58" y2="33.48"/><line class="cls-11" x1="396.81" y1="27.56" x2="396.81" y2="34.08"/><line class="cls-12" x1="400.04" y1="28.31" x2="400.04" y2="34.68"/><line class="cls-13" x1="403.27" y1="29.07" x2="403.27" y2="35.28"/><line class="cls-14" x1="406.5" y1="29.83" x2="406.5" y2="35.88"/><line class="cls-15" x1="409.73" y1="30.59" x2="409.73" y2="36.48"/><line class="cls-16" x1="412.96" y1="31.35" x2="412.96" y2="37.08"/><line class="cls-17" x1="416.19" y1="32.1" x2="416.19" y2="37.67"/><line class="cls-18" x1="419.42" y1="32.86" x2="419.42" y2="38.27"/><line class="cls-19" x1="422.65" y1="33.62" x2="422.65" y2="38.87"/><line class="cls-20" x1="425.88" y1="34.38" x2="425.88" y2="39.47"/><polyline class="cls-20" points="263.19 7.78 276.61 14.87 297.84 14.91"/><line class="cls-20" x1="276.61" y1="14.87" x2="276.61" y2="31.55"/><line class="cls-21" x1="279.27" y1="15.11" x2="279.27" y2="31.92"/><line class="cls-21" x1="282.04" y1="15.04" x2="282.45" y2="31.79"/><line class="cls-21" x1="284.81" y1="14.97" x2="285.62" y2="31.67"/><line class="cls-21" x1="287.58" y1="14.9" x2="288.79" y2="31.54"/><line class="cls-21" x1="290.35" y1="14.84" x2="291.97" y2="31.42"/><line class="cls-21" x1="293.12" y1="14.77" x2="295.14" y2="31.3"/><line class="cls-21" x1="295.89" y1="14.7" x2="298.31" y2="31.17"/><path class="cls-6" d="M278.29,61.46V46.86a3.5,3.5,0,0,0-3.5-3.5H261.34a3.55,3.55,0,0,0-.73.08l-44.34,9.42V57l44.39,7.95a3.26,3.26,0,0,0,.62.06h13.51A3.51,3.51,0,0,0,278.29,61.46Z" transform="translate(0 0.47)"/><polyline class="cls-5" points="352.42 28.72 300.66 31.08 352.42 28.72 348.31 25.06 298.76 20.19 300.66 31.08"/><path class="cls-6" d="M82.64,57.26c21,0,38.08,14.32,38.08,32a27.88,27.88,0,0,1-.2,3.31,28.18,28.18,0,0,1-2.37,8.18h-71a27.58,27.58,0,0,1-2.37-8.18,25.92,25.92,0,0,1-.21-3.31C44.56,71.58,61.61,57.26,82.64,57.26Z" transform="translate(0 0.47)"/><circle class="cls-22" cx="366.2" cy="90.77" r="30.92"/><circle class="cls-23" cx="83.93" cy="90.77" r="30.92"/><circle class="cls-23" cx="366.2" cy="90.77" r="30.92"/><circle class="cls-24" cx="366.2" cy="90.77" r="21.5"/><circle class="cls-25" cx="366.2" cy="90.77" r="5.22"/><circle class="cls-26" cx="366.2" cy="90.77" r="3.42"/><circle class="cls-22" cx="366.2" cy="77.45" r="5.22"/><circle class="cls-23" cx="353.53" cy="86.65" r="5.22"/><circle class="cls-23" cx="358.37" cy="101.55" r="5.22"/><circle class="cls-23" cx="374.03" cy="101.55" r="5.22"/><circle class="cls-23" cx="378.87" cy="86.65" r="5.22"/><circle class="cls-23" cx="366.2" cy="77.45" r="5.22"/><path class="cls-22" d="M115.33,100.76a29.29,29.29,0,0,0,1.85-10.17c0-17.46-15.4-31.62-34.39-31.62S48.4,73.13,48.4,90.59a29.29,29.29,0,0,0,1.85,10.17H42.53A35.75,35.75,0,0,1,41,90.59c0-21.22,18.7-38.42,41.78-38.42s41.79,17.2,41.79,38.42a35.41,35.41,0,0,1-1.53,10.17Z" transform="translate(0 0.47)"/><circle class="cls-24" cx="83.93" cy="90.77" r="21.5"/><circle class="cls-25" cx="83.93" cy="90.77" r="5.22"/><circle class="cls-26" cx="83.93" cy="90.77" r="3.42"/><circle class="cls-22" cx="83.93" cy="77.45" r="5.22"/><circle class="cls-23" cx="71.26" cy="86.65" r="5.22"/><circle class="cls-23" cx="76.1" cy="101.55" r="5.22"/><circle class="cls-23" cx="91.77" cy="101.55" r="5.22"/><circle class="cls-23" cx="96.61" cy="86.65" r="5.22"/><circle class="cls-23" cx="83.93" cy="77.45" r="5.22"/><polygon class="cls-27" points="256.36 7.78 256.36 32.45 111.13 37.78 188.5 9.15 256.36 7.78"/><line class="cls-5" x1="255.92" y1="20.19" x2="176.07" y2="21.79"/><line class="cls-5" x1="188.18" y1="9.15" x2="161.57" y2="35.92"/><path class="cls-3" d="M391.38,13.2l5-5a4.55,4.55,0,0,1,3.24-1.34h37.26a4.57,4.57,0,0,1,3.29,7.73l-1.73,1.81a4.36,4.36,0,0,1-1,.79l-11.94,6.87a4.55,4.55,0,0,1-2.28.61H399.39a4.55,4.55,0,0,1-2.79-1L391.83,20A4.56,4.56,0,0,1,391.38,13.2Z" transform="translate(0 0.47)"/><polygon class="cls-5" points="352.42 28.72 352.42 18.76 348.44 15.15 297.1 2.24 298.76 20.19 347.85 24.87 352.42 28.72"/><line class="cls-5" x1="348.31" y1="25.06" x2="348.31" y2="15.33"/><polygon class="cls-20" points="425.88 34.38 383.96 24.19 383.96 32.02 425.88 39.47 425.88 34.38"/><path class="cls-22" d="M384.53,61.89H351.14a5.41,5.41,0,0,0-3.77,1.53L319.69,90.33a5.43,5.43,0,0,0-1.45,5.3l1.4,5.1h-3.72a5.42,5.42,0,0,1-5-3.25l-2.7-6.21a5.42,5.42,0,0,1,1.15-6L344.6,50.33a5.42,5.42,0,0,1,3.81-1.57h40.38a5.4,5.4,0,0,1,4.66,2.66l14.61,24.76a5.42,5.42,0,0,1-.67,6.39h0a5.4,5.4,0,0,1-8.71-1l-9.43-16.89A5.4,5.4,0,0,0,384.53,61.89Z" transform="translate(0 0.47)"/></g></g></svg>