<svg xmlns="http://www.w3.org/2000/svg" viewBox="0 0 34.95 61.77"><defs><style>.cls-1{fill:#1d1d1b;fill-rule:evenodd;}</style></defs><g id="Layer_2" data-name="Layer 2"><g id="Layer_1-2" data-name="Layer 1"><path class="cls-1" d="M16.32,0a33.24,33.24,0,0,1,11,1.48C30,2.39,34,4,34.71,6.31c.45,1.4.19,8-.11,9.26-.75,3.09-3.71,5.79-5.83,7.76s-5.94,4.47-5.94,7.54c0,2.53,3.48,5.44,4.91,6.75,2.07,1.89,4.33,3.76,5.72,5.94,1.16,1.83,1.37,3.57,1.37,7.08,0,1.56.32,3.66-.12,4.91-.72,2.08-5.05,3.85-7.2,4.57-8,2.72-17.57,2.05-24.1-1.83C2.22,57.59.66,56.51.32,55.55c-.43-1.25-.11-3.22-.11-4.8a23.14,23.14,0,0,1,.23-4.68C1.2,43,4,40.54,6.26,38.42c1-1,2-1.82,3.43-3.32,1-1,2.52-2.33,2.52-4.23,0-2.41-3.53-5.48-5.15-7C4.81,21.84,1,19,.32,15.45c-.31-1.74-.53-7.14,0-9C1,4.15,4.56,2.72,6.84,1.85A30,30,0,0,1,16.32,0ZM8,5.51c-1,.43-4.32,1.85-4.11,3,.11.61,2,1.29,2.74,1.6a31.29,31.29,0,0,0,18.85,1.14c1.18-.31,6-1.58,5.94-2.85,0-.63-2-1.65-2.86-2.06A25.39,25.39,0,0,0,16.2,3.91,23.62,23.62,0,0,0,8,5.51ZM3.87,11.45c-.28,3.73,1,5,2.62,6.86,1.09,1.22,2.15,2.25,3.09,3.2,2,2,4.73,4.16,5.82,6.62,2.44,5.49-2.55,8.78-5.48,11.66C7.8,41.86,4.41,44.57,4,47.33c-.22,1.39.16,2.77,0,4.34C7.7,50,14.7,49.09,15.86,45.16c.45-1.52,0-3,1.72-3s1.2,1.62,1.6,3A6.65,6.65,0,0,0,21,47.56c2.58,2,6.92,2.81,10.06,4.11-.19-1.62.25-3,0-4.46-.48-2.7-4.34-5.85-5.94-7.42-2.25-2.2-5.23-4.24-5.94-7.43C18.07,27.45,22.32,24.59,25,22s6.65-5.17,6.17-10.85c-6.78,4.15-20.52,4.14-27.3,0Z"/></g></g></svg>