<svg xmlns="http://www.w3.org/2000/svg" viewBox="0 0 56.75 135.16"><defs><style>.cls-1{fill:#809038;}.cls-2{fill:#f7941e;}.cls-3,.cls-4{fill:none;stroke-linecap:round;stroke-linejoin:round;stroke-width:5px;}.cls-3{stroke:#f7941e;}.cls-4{stroke:#f784ce;}.cls-5{fill:#231f20;}.cls-6{fill:#fff;}</style></defs><g id="Layer_2" data-name="Layer 2"><g id="Ref"><path class="cls-1" d="M34.86,135.16V36.31a6,6,0,0,0-11.94,0v98.85Z"/><path class="cls-1" d="M28.89,75H10A10,10,0,0,1,0,65.05V42a6,6,0,0,1,11.94,0V63.06h17a6,6,0,0,1,0,11.94Z"/><path class="cls-1" d="M46.8,96.22H28.89a6,6,0,0,1,0-11.94H44.81V62.2a6,6,0,1,1,11.94,0V86.27A10,10,0,0,1,46.8,96.22Z"/><path class="cls-2" d="M6.45,7.23h4.28l.31,0a2.12,2.12,0,0,0,.05-.44A2.36,2.36,0,0,0,8.73,4.46H4.45a2.35,2.35,0,0,0-.31,4.68A2.36,2.36,0,0,1,6.45,7.23Z"/><polyline class="cls-3" points="29.2 24.07 29.2 30.72 23.42 30.72 23.42 33.36"/><polyline class="cls-4" points="19.17 12.57 11.09 12.57 11.09 2.5"/><path class="cls-5" d="M22.44,5.86h8a4.88,4.88,0,0,1,3.46,1.43L50.4,23.75a1.51,1.51,0,0,1-1.07,2.58H22.44a4.9,4.9,0,0,1-4.9-4.9V10.76A4.9,4.9,0,0,1,22.44,5.86Z"/><path class="cls-6" d="M23.42,4.82h-.77a5.39,5.39,0,0,0-5.39,5.4V22a5.39,5.39,0,0,0,5.39,5.39h.77Z"/></g></g></svg>