<svg xmlns="http://www.w3.org/2000/svg" viewBox="0 0 249.15 300.04"><defs><style>.cls-1{fill:#64702c;}.cls-2{fill:none;stroke:#3f461c;stroke-linecap:round;stroke-linejoin:round;stroke-width:2.36px;}</style></defs><g id="Layer_2" data-name="Layer 2"><g id="Layer_6" data-name="Layer 6"><path class="cls-1" d="M174.08,126,249.15,201S174.08,221,174.08,126Z"/><path class="cls-1" d="M174.08,126V19.78S241.28,58.76,174.08,126Z"/><path class="cls-1" d="M174.08,300S63.9,236.13,174.08,126V300"/><path class="cls-1" d="M51,249.05S18.27,126,174.08,126L51,249.05"/><path class="cls-1" d="M0,126s63.9-110.18,174.08,0H0"/><path class="cls-1" d="M51,2.86S174.08-29.86,174.08,126L51,2.86"/><path class="cls-2" d="M174.08,126S98.49,138.31,64,202.78"/><polyline class="cls-2" points="77.47 159.7 100.46 159.7 100.46 194.05"/><polyline class="cls-2" points="91.43 153.02 109.48 153.02 109.48 171.47"/><polyline class="cls-2" points="125.11 135.7 142.09 135.7 142.09 149.85"/><path class="cls-2" d="M174.08,126S111.9,81.24,41.89,102.4"/><polyline class="cls-2" points="81.91 81.5 98.16 97.75 73.87 122.05"/><polyline class="cls-2" points="96.5 86.65 109.27 99.42 96.22 112.46"/><polyline class="cls-2" points="132.57 98.22 144.57 110.22 134.56 120.23"/><path class="cls-2" d="M174.08,126S161.73,50.37,97.26,15.83"/><polyline class="cls-2" points="140.34 29.34 140.34 52.33 105.98 52.33"/><polyline class="cls-2" points="147.01 43.3 147.01 61.36 128.56 61.36"/><polyline class="cls-2" points="164.34 76.99 164.34 93.97 150.19 93.97"/><path class="cls-2" d="M174.08,126S129,187.9,149.84,258"/><polyline class="cls-2" points="129.14 217.9 145.48 201.72 169.65 226.15"/><polyline class="cls-2" points="134.37 203.33 147.21 190.63 160.18 203.74"/><polyline class="cls-2" points="146.13 167.32 158.19 155.38 168.15 165.44"/></g></g></svg>