<svg xmlns="http://www.w3.org/2000/svg" xmlns:xlink="http://www.w3.org/1999/xlink" viewBox="0 0 104.03 177.65"><defs><style>.cls-1{fill:url(#linear-gradient);}.cls-2{fill:url(#linear-gradient-2);}.cls-3{fill:url(#linear-gradient-3);}.cls-4{fill:url(#linear-gradient-4);}.cls-5{fill:url(#linear-gradient-5);}.cls-6{fill:url(#linear-gradient-6);}.cls-7{fill:url(#linear-gradient-7);}.cls-8{fill:url(#linear-gradient-8);}.cls-9{fill:url(#linear-gradient-9);}.cls-10{fill:url(#linear-gradient-10);}.cls-11{fill:url(#linear-gradient-11);}.cls-12{fill:url(#linear-gradient-12);}.cls-13{fill:url(#linear-gradient-13);}.cls-14{fill:url(#linear-gradient-14);}.cls-15{fill:url(#linear-gradient-15);}.cls-16{fill:url(#linear-gradient-16);}.cls-17{fill:url(#linear-gradient-17);}</style><linearGradient id="linear-gradient" x1="2584.03" y1="1484.77" x2="2516.05" y2="1648.9" gradientTransform="matrix(0.92, -0.38, 0.38, 0.92, -2903.6, -382.87)" gradientUnits="userSpaceOnUse"><stop offset="0" stop-color="#5c6066"/><stop offset="1" stop-color="#292b2e"/></linearGradient><linearGradient id="linear-gradient-2" x1="2554.85" y1="1501.22" x2="2550.63" y2="1511.4" xlink:href="#linear-gradient"/><linearGradient id="linear-gradient-3" x1="2567.58" y1="1506.49" x2="2563.36" y2="1516.67" xlink:href="#linear-gradient"/><linearGradient id="linear-gradient-4" x1="2580.31" y1="1511.76" x2="2576.09" y2="1521.95" xlink:href="#linear-gradient"/><linearGradient id="linear-gradient-5" x1="2593.04" y1="1517.04" x2="2588.82" y2="1527.22" xlink:href="#linear-gradient"/><linearGradient id="linear-gradient-6" x1="2582.1" y1="1525.43" x2="2577.89" y2="1535.61" xlink:href="#linear-gradient"/><linearGradient id="linear-gradient-7" x1="2569.38" y1="1520.15" x2="2565.16" y2="1530.34" xlink:href="#linear-gradient"/><linearGradient id="linear-gradient-8" x1="2556.65" y1="1514.88" x2="2552.43" y2="1525.06" xlink:href="#linear-gradient"/><linearGradient id="linear-gradient-9" x1="2571.17" y1="1533.81" x2="2566.95" y2="1544" xlink:href="#linear-gradient"/><linearGradient id="linear-gradient-10" x1="2558.44" y1="1528.54" x2="2554.23" y2="1538.73" xlink:href="#linear-gradient"/><linearGradient id="linear-gradient-11" x1="2560.24" y1="1542.2" x2="2556.02" y2="1552.39" xlink:href="#linear-gradient"/><linearGradient id="linear-gradient-12" x1="2541.19" y1="1588.2" x2="2536.97" y2="1598.39" xlink:href="#linear-gradient"/><linearGradient id="linear-gradient-13" x1="2527.28" y1="1621.78" x2="2523.06" y2="1631.96" xlink:href="#linear-gradient"/><linearGradient id="linear-gradient-14" x1="2514.55" y1="1616.51" x2="2510.33" y2="1626.69" xlink:href="#linear-gradient"/><linearGradient id="linear-gradient-15" x1="2525.48" y1="1608.12" x2="2521.26" y2="1618.3" xlink:href="#linear-gradient"/><linearGradient id="linear-gradient-16" x1="2538.21" y1="1613.39" x2="2533.99" y2="1623.57" xlink:href="#linear-gradient"/><linearGradient id="linear-gradient-17" x1="2540.01" y1="1627.05" x2="2535.79" y2="1637.24" xlink:href="#linear-gradient"/></defs><g id="Layer_2" data-name="Layer 2"><g id="Layer_1-2" data-name="Layer 1"><path class="cls-1" d="M13.78,160H6.89a2.7,2.7,0,0,1-2.72-2.75C4.92,125.87,18.5,113.83,28.5,105c7-6.23,10.42-9.52,10.42-16.14S35.54,78.92,28.5,72.68C18.5,63.82,4.92,51.79,4.17,20.39a2.7,2.7,0,0,1,2.72-2.75h6.89a2.81,2.81,0,0,1,2.79,2.75c.69,25.76,11,34.91,20.15,43,7.18,6.36,14.6,12.94,14.6,25.43S43.9,107.9,36.73,114.25c-9.15,8.11-19.47,17.26-20.16,43A2.81,2.81,0,0,1,13.78,160Zm86.08-2.75c-.75-31.39-14.34-43.43-24.33-52.29-7-6.23-10.43-9.52-10.43-16.14s3.39-9.91,10.42-16.15c10-8.86,23.59-20.9,24.34-52.29a2.7,2.7,0,0,0-2.72-2.75H90.25a2.81,2.81,0,0,0-2.79,2.75c-.69,25.76-11,34.91-20.16,43-7.18,6.36-14.6,12.94-14.6,25.43s7.42,19.07,14.6,25.43c9.15,8.1,19.47,17.25,20.16,43A2.81,2.81,0,0,0,90.25,160h6.89A2.69,2.69,0,0,0,99.86,157.26ZM104,12.82V2.76A2.76,2.76,0,0,0,101.27,0H2.76A2.75,2.75,0,0,0,0,2.76V12.82a2.75,2.75,0,0,0,2.76,2.75h98.51A2.76,2.76,0,0,0,104,12.82Zm0,162.08V164.84a2.77,2.77,0,0,0-2.76-2.76H2.76A2.76,2.76,0,0,0,0,164.84V174.9a2.74,2.74,0,0,0,2.76,2.75h98.51A2.75,2.75,0,0,0,104,174.9Z"/><path class="cls-2" d="M36.86,31.88a5.52,5.52,0,1,1-5.51-5.51A5.51,5.51,0,0,1,36.86,31.88Z"/><path class="cls-3" d="M50.64,31.88a5.52,5.52,0,1,1-5.52-5.51A5.52,5.52,0,0,1,50.64,31.88Z"/><path class="cls-4" d="M64.41,31.88a5.51,5.51,0,1,1-5.51-5.51A5.51,5.51,0,0,1,64.41,31.88Z"/><path class="cls-5" d="M78.19,31.88a5.51,5.51,0,1,1-5.51-5.51A5.51,5.51,0,0,1,78.19,31.88Z"/><path class="cls-6" d="M71.3,43.81a5.51,5.51,0,1,1-5.51-5.51A5.5,5.5,0,0,1,71.3,43.81Z"/><path class="cls-7" d="M57.52,43.81A5.51,5.51,0,1,1,52,38.3,5.5,5.5,0,0,1,57.52,43.81Z"/><path class="cls-8" d="M43.75,43.81a5.52,5.52,0,1,1-5.51-5.51A5.51,5.51,0,0,1,43.75,43.81Z"/><path class="cls-9" d="M64.41,55.75a5.51,5.51,0,1,1-5.51-5.51A5.51,5.51,0,0,1,64.41,55.75Z"/><path class="cls-10" d="M50.64,55.75a5.52,5.52,0,1,1-5.52-5.51A5.52,5.52,0,0,1,50.64,55.75Z"/><path class="cls-11" d="M57.52,67.68A5.51,5.51,0,1,1,52,62.17,5.51,5.51,0,0,1,57.52,67.68Z"/><path class="cls-12" d="M57.52,117.47A5.51,5.51,0,1,1,52,112,5.5,5.5,0,0,1,57.52,117.47Z"/><path class="cls-13" d="M57.52,153.82A5.51,5.51,0,1,1,52,148.3,5.51,5.51,0,0,1,57.52,153.82Z"/><path class="cls-14" d="M43.75,153.81a5.52,5.52,0,1,1-5.51-5.51A5.52,5.52,0,0,1,43.75,153.81Z"/><path class="cls-15" d="M50.63,141.88a5.51,5.51,0,1,1-5.51-5.51A5.51,5.51,0,0,1,50.63,141.88Z"/><path class="cls-16" d="M64.41,141.88a5.51,5.51,0,1,1-5.51-5.51A5.51,5.51,0,0,1,64.41,141.88Z"/><path class="cls-17" d="M71.3,153.82a5.51,5.51,0,1,1-5.51-5.52A5.51,5.51,0,0,1,71.3,153.82Z"/></g></g></svg>