<svg xmlns="http://www.w3.org/2000/svg" viewBox="0 0 161 259.53"><defs><style>.cls-1{fill:#fff;}.cls-2{fill:#f9ed32;}.cls-3{fill:#5dc2a6;}.cls-4{fill:#e51491;}.cls-5,.cls-8,.cls-9{fill:none;}.cls-5{stroke:#d3c00f;stroke-width:0.82px;}.cls-5,.cls-9{stroke-miterlimit:10;}.cls-6{fill:#000005;}.cls-7{fill:#ec008c;}.cls-8{stroke:#000005;stroke-linecap:round;stroke-linejoin:round;}.cls-8,.cls-9{stroke-width:1.14px;}.cls-9{stroke:#5dc2a6;}</style></defs><g id="Layer_2" data-name="Layer 2"><g id="Layer_8" data-name="Layer 8"><polygon class="cls-1" points="44.23 255.69 44.23 259.53 75 259.53 75 245.26 44.23 255.69"/><polygon class="cls-1" points="157.16 204.24 161 204.24 161 173.47 146.72 173.47 157.16 204.24"/><path class="cls-1" d="M62.56,120c-.58.15-1.16.27-1.74.44A16.43,16.43,0,0,0,49.35,139L68.83,249.46H75V145.37h0Z"/><path class="cls-1" d="M99.27,169.18,104.59,139a16.43,16.43,0,0,0-11.47-18.62c-.58-.17-1.16-.29-1.74-.44l-12.47,25.4h0v40.48h72v-6.2Z"/><rect class="cls-2" x="76.97" y="143.44" height="3.87"/><path class="cls-3" d="M91.38,120a57.2,57.2,0,0,0-28.82,0L75,145.37h3.89Z"/><polygon class="cls-1" points="60.36 65.89 44.23 65.89 44.23 114.8 51.73 114.8 60.36 65.89"/><polygon class="cls-1" points="14.58 108.6 50.2 101.91 50.2 114.8 14.58 114.8 14.58 108.6"/><polygon class="cls-1" points="90.79 82.02 90.79 65.89 139.7 65.89 139.7 73.39 90.79 82.02"/><polygon class="cls-1" points="133.5 103.97 126.81 68.35 139.7 68.35 139.7 103.97 133.5 103.97"/><polygon class="cls-4" points="55.32 207.76 62.68 249.46 75.03 249.46 75.03 207.76 55.32 207.76"/><polygon class="cls-4" points="109.21 166.13 150.9 173.49 150.9 185.85 109.21 185.85 109.21 166.13"/><polygon class="cls-3" points="109.7 65.89 76.97 131.75 44.23 65.89 109.7 65.89"/><circle class="cls-2" cx="75.43" cy="30.3" r="30.3"/><rect class="cls-2" x="75.43" width="82.71" height="59.06"/><path class="cls-5" d="M85.57,47.89c6.05,0,6.05,5.17,12.09,5.17s6-5.17,12.09-5.17,6,5.17,12.1,5.17,6.05-5.17,12.09-5.17S140,53.06,146,53.06s6.05-5.17,12.1-5.17"/><path class="cls-5" d="M85.57,37.28c6.05,0,6.05,5.18,12.09,5.18s6-5.18,12.09-5.18,6,5.18,12.1,5.18,6.05-5.18,12.09-5.18S140,42.46,146,42.46s6.05-5.18,12.1-5.18"/><path class="cls-5" d="M85.57,26.68c6.05,0,6.05,5.18,12.09,5.18s6-5.18,12.09-5.18,6,5.18,12.1,5.18,6.05-5.18,12.09-5.18S140,31.86,146,31.86s6.05-5.18,12.1-5.18"/><rect class="cls-1" x="66.71" y="34.86" width="17.43" height="56.1" rx="8.72"/><path class="cls-2" d="M83.88,41.49a8.71,8.71,0,0,0-16.91,0Z"/><path class="cls-6" d="M63.62,48.32a4.1,4.1,0,0,0-1,2.66,4.41,4.41,0,0,0,8.82,0,4.1,4.1,0,0,0-1-2.66Z"/><path class="cls-6" d="M73.83,48.32a4.06,4.06,0,0,0-1,2.66,4.41,4.41,0,0,0,8.82,0,4.1,4.1,0,0,0-1-2.66Z"/><path class="cls-7" d="M69.15,58.34a3.25,3.25,0,0,0,6.4,0Z"/><path class="cls-7" d="M73.12,58.34a2.2,2.2,0,0,0-4.24,0Z"/><path class="cls-7" d="M76.59,58.34a2.2,2.2,0,0,0-4.24,0Z"/><rect class="cls-3" x="66.71" y="39.48" width="17.43" height="5.42"/><line class="cls-8" x1="70.23" y1="50.43" x2="87.44" y2="50.43"/><line class="cls-9" x1="73.89" y1="90.96" x2="73.89" y2="80.55"/><polygon class="cls-1" points="0 111.42 0 114.8 19.65 114.8 19.65 102.23 0 111.42"/><polygon class="cls-1" points="10.89 103.41 10.89 101.91 19.65 101.91 19.65 107.5 10.89 103.41"/><polygon class="cls-1" points="136.32 120.46 139.7 120.46 139.7 100.81 127.13 100.81 136.32 120.46"/><polygon class="cls-1" points="128.31 109.56 126.81 109.56 126.81 100.81 132.41 100.81 128.31 109.56"/></g></g></svg>