<svg xmlns="http://www.w3.org/2000/svg" viewBox="0 0 51.23 59.75"><defs><style>.cls-1{fill:#1d1d1b;fill-rule:evenodd;}</style></defs><g id="Layer_2" data-name="Layer 2"><g id="Layer_1-2" data-name="Layer 1"><path class="cls-1" d="M1.44.44c.07,0,0-.16.17-.18,8.05-.59,16.18,0,25.6,0H40.09c3.33,0,10.8-.8,11.12,1.59.44,3.36-7.7,2.3-11.47,2.3H12.2C8.74,4.15.41,5.08,0,2.56A1.89,1.89,0,0,1,1.44.44Z"/><path class="cls-1" d="M8.32,5A108,108,0,0,1,7.26,23H4.61C3.8,17.49,3.78,11.16,3.56,5Z"/><path class="cls-1" d="M10.09,5H41.33c.36,10-4,14.4-9.36,19.24-1.75,1.56-4,3.64-3.71,6,.47,3.88,5.82,6.48,8.3,9.35,3.54,4.11,4.63,8.29,4.77,15.18H9.91c-.32-10.15,3.89-14.59,9.35-19.41,1.4-1.24,3.71-3.12,3.89-4.95.39-4-5.57-7.14-7.95-9.88a20.81,20.81,0,0,1-5.29-15C9.89,5.31,9.88,5.06,10.09,5Zm1.05,1.76c.61,5.89,1.82,9.36,5.12,13.06,2.53,2.83,7.06,4.88,7.94,8.83.81,3.57-1.5,5.45-3.52,7.24-5.18,4.57-9.31,8.42-9.54,17.47,9.24.41,19.24.06,28.77.17-.11-6-1.31-9.37-4.59-13.23-2.57-3-8-5.37-8.47-9.71-.59-5.15,5.64-8,8.12-10.77,3.28-3.67,4.84-7.46,4.94-13.59H11.5A.5.5,0,0,0,11.14,6.79Z"/><path class="cls-1" d="M47.33,5a121.62,121.62,0,0,1-.89,18H43.8A103.66,103.66,0,0,1,42.74,5Z"/><path class="cls-1" d="M15.2,16.85c6.48-.41,13.71-.06,20.48-.17.25.93-.77,1.57-1.24,2.12-2.29,2.63-6.66,5.31-7.94,8.82-.83,2.25-1.18,11.35-.18,14.47,1.55,4.79,7.22,7.11,9.89,10.59H15c-.14-.6.68-.74,1.06-1.06,1.3-1.08,2.81-2.4,4.23-3.7,1.69-1.54,4.21-4,4.77-6,.81-2.88.47-8.66.17-11.48-.7-6.69-7.06-8.48-9.7-13.23C15.37,17.16,15.44,16.86,15.2,16.85Z"/><path class="cls-1" d="M7.79,23.74a3.61,3.61,0,0,1,0,3.7H4.26c-.75-1-.95-3,.18-3.7Z"/><path class="cls-1" d="M46.8,23.74a3.44,3.44,0,0,1,0,3.7H43.44c-.93-.64-.88-2.84-.17-3.7Z"/><path class="cls-1" d="M7.79,28.15a3.19,3.19,0,0,1,0,3.53c-1.12.13-2.07-.06-3.53,0C2.35,28.81,5.21,27.14,7.79,28.15Z"/><path class="cls-1" d="M46.62,28c.9.51,1,3,.18,3.71-1.17-.07-2.9.1-3.53,0C41.66,29,43.74,27.27,46.62,28Z"/><path class="cls-1" d="M7.79,32.39a3.63,3.63,0,0,1,0,3.7H4.26C2.74,34,3.84,31.48,7.79,32.39Z"/><path class="cls-1" d="M46.8,32.39a3.44,3.44,0,0,1,0,3.7H43.27c-.7-.85-.78-3.08.17-3.7Z"/><path class="cls-1" d="M7.26,36.8a108,108,0,0,1,1.06,18H3.56c.26-5.92.15-12.2,1.05-17.47C4.58,36.24,6.45,37.05,7.26,36.8Z"/><path class="cls-1" d="M46.44,36.8a122.92,122.92,0,0,1,.89,18H42.74c.06-6.35-.09-12.91,1.23-18Z"/><path class="cls-1" d="M1.61,55.86c.06,0,0-.17.18-.18,8.08-.59,16.33,0,25.77,0H40.44c3.5,0,10.75-.87,10.77,1.94s-7.91,1.94-11.65,1.94H12.38C9,59.56,1,60.45.2,58.33A1.83,1.83,0,0,1,1.61,55.86Z"/></g></g></svg>