<svg xmlns="http://www.w3.org/2000/svg" xmlns:xlink="http://www.w3.org/1999/xlink" viewBox="0 0 1005 1217.88"><defs><style>.cls-1,.cls-13{stroke:#5dc2a6;stroke-miterlimit:10;stroke-width:5px;}.cls-1,.cls-13,.cls-2{opacity:0.6;}.cls-1,.cls-2{fill:url(#radial-gradient);}.cls-3{clip-path:url(#clip-path);}.cls-4{fill:url(#linear-gradient);}.cls-13,.cls-5{fill:none;}.cls-6{fill:url(#linear-gradient-3);}.cls-7{fill:url(#linear-gradient-5);}.cls-8{fill:url(#linear-gradient-6);}.cls-9{fill:url(#linear-gradient-7);}.cls-10{fill:url(#linear-gradient-8);}.cls-11{fill:url(#linear-gradient-9);}.cls-12{fill:url(#linear-gradient-10);}.cls-14{fill:url(#linear-gradient-22);}.cls-15{fill:url(#linear-gradient-23);}.cls-16{fill:url(#linear-gradient-24);}.cls-17{fill:url(#linear-gradient-25);}.cls-18{fill:url(#linear-gradient-26);}.cls-19{fill:url(#linear-gradient-27);}.cls-20{fill:url(#linear-gradient-28);}.cls-21{fill:url(#linear-gradient-29);}.cls-22{fill:url(#linear-gradient-30);}.cls-23{fill:url(#linear-gradient-31);}.cls-24{fill:url(#linear-gradient-32);}.cls-25{fill:url(#linear-gradient-33);}.cls-26{fill:url(#linear-gradient-34);}.cls-27{fill:url(#linear-gradient-35);}.cls-28{fill:url(#linear-gradient-38);}.cls-29{fill:url(#linear-gradient-39);}.cls-30{fill:url(#linear-gradient-41);}.cls-31{fill:url(#linear-gradient-42);}.cls-32{fill:url(#linear-gradient-44);}.cls-33{fill:url(#linear-gradient-45);}.cls-34{fill:url(#linear-gradient-46);}.cls-35{fill:url(#linear-gradient-47);}.cls-36{fill:url(#linear-gradient-51);}.cls-37{fill:url(#linear-gradient-52);}.cls-38{fill:url(#linear-gradient-53);}.cls-39{fill:url(#linear-gradient-54);}</style><radialGradient id="radial-gradient" cx="498.5" cy="202.22" r="509.65" gradientTransform="translate(0 147.35) scale(1 0.27)" gradientUnits="userSpaceOnUse"><stop offset="0.32" stop-color="#0f1f1a"/><stop offset="0.57" stop-color="#2d5d4f"/><stop offset="1" stop-color="#5dc2a6"/></radialGradient><clipPath id="clip-path" transform="translate(0 112.73)"><path class="cls-1" d="M1002.5,100.22c0,54-223.86,97.71-500,97.71-135.89,0-259.12-10.59-349.24-27.79C60.24,152.4,2.5,127.63,2.5,100.22,2.5,59.5,226.36,2.5,502.5,2.5S1002.5,46.25,1002.5,100.22Z"/></clipPath><linearGradient id="linear-gradient" x1="502.5" y1="-11.95" x2="502.5" y2="1126.9" gradientUnits="userSpaceOnUse"><stop offset="0" stop-color="#5dc2a6"/><stop offset="0.28" stop-color="#499882"/><stop offset="0.48" stop-color="#3c7d6b"/><stop offset="0.59" stop-color="#3f8370"/><stop offset="0.74" stop-color="#47957f"/><stop offset="0.92" stop-color="#55b198"/><stop offset="1" stop-color="#5dc2a6"/></linearGradient><linearGradient id="linear-gradient-3" x1="502.5" y1="-11.95" x2="502.5" y2="1126.9" xlink:href="#linear-gradient"/><linearGradient id="linear-gradient-5" x1="424.05" y1="-11.95" x2="424.05" y2="1126.9" xlink:href="#linear-gradient"/><linearGradient id="linear-gradient-6" x1="280.08" y1="-11.95" x2="280.08" y2="1126.9" xlink:href="#linear-gradient"/><linearGradient id="linear-gradient-7" x1="208.41" y1="-11.95" x2="208.41" y2="1126.9" xlink:href="#linear-gradient"/><linearGradient id="linear-gradient-8" x1="579.51" y1="-11.95" x2="579.51" y2="1126.9" xlink:href="#linear-gradient"/><linearGradient id="linear-gradient-9" x1="723.48" y1="-11.95" x2="723.48" y2="1126.9" xlink:href="#linear-gradient"/><linearGradient id="linear-gradient-10" x1="795.15" y1="-11.95" x2="795.15" y2="1126.9" xlink:href="#linear-gradient"/><linearGradient id="linear-gradient-22" x1="301.42" y1="-11.95" x2="301.42" y2="1126.9" xlink:href="#linear-gradient"/><linearGradient id="linear-gradient-23" x1="385.66" y1="-11.95" x2="385.66" y2="1126.9" xlink:href="#linear-gradient"/><linearGradient id="linear-gradient-24" x1="456.92" y1="-11.95" x2="456.92" y2="1126.9" xlink:href="#linear-gradient"/><linearGradient id="linear-gradient-25" x1="394.17" y1="-11.95" x2="394.17" y2="1126.9" xlink:href="#linear-gradient"/><linearGradient id="linear-gradient-26" x1="432.29" y1="-11.95" x2="432.29" y2="1126.9" xlink:href="#linear-gradient"/><linearGradient id="linear-gradient-27" x1="450.96" y1="-11.95" x2="450.96" y2="1126.9" xlink:href="#linear-gradient"/><linearGradient id="linear-gradient-28" x1="460.17" y1="100.78" x2="460.17" y2="1239.63" xlink:href="#linear-gradient"/><linearGradient id="linear-gradient-29" x1="703.58" y1="-11.95" x2="703.58" y2="1126.9" xlink:href="#linear-gradient"/><linearGradient id="linear-gradient-30" x1="619.34" y1="-11.95" x2="619.34" y2="1126.9" xlink:href="#linear-gradient"/><linearGradient id="linear-gradient-31" x1="548.08" y1="-11.95" x2="548.08" y2="1126.9" xlink:href="#linear-gradient"/><linearGradient id="linear-gradient-32" x1="610.83" y1="-11.95" x2="610.83" y2="1126.9" xlink:href="#linear-gradient"/><linearGradient id="linear-gradient-33" x1="572.71" y1="-11.95" x2="572.71" y2="1126.9" xlink:href="#linear-gradient"/><linearGradient id="linear-gradient-34" x1="554.04" y1="-11.95" x2="554.04" y2="1126.9" xlink:href="#linear-gradient"/><linearGradient id="linear-gradient-35" x1="544.83" y1="100.78" x2="544.83" y2="1239.63" xlink:href="#linear-gradient"/><linearGradient id="linear-gradient-38" x1="574.63" y1="-11.95" x2="574.63" y2="1126.9" xlink:href="#linear-gradient"/><linearGradient id="linear-gradient-39" x1="556.06" y1="-11.95" x2="556.06" y2="1126.9" xlink:href="#linear-gradient"/><linearGradient id="linear-gradient-41" x1="301.44" y1="-11.95" x2="301.44" y2="1126.9" xlink:href="#linear-gradient"/><linearGradient id="linear-gradient-42" x1="431.34" y1="-11.95" x2="431.34" y2="1126.9" xlink:href="#linear-gradient"/><linearGradient id="linear-gradient-44" x1="696.56" y1="-11.95" x2="696.56" y2="1126.9" xlink:href="#linear-gradient"/><linearGradient id="linear-gradient-45" x1="308.44" y1="-11.95" x2="308.44" y2="1126.9" xlink:href="#linear-gradient"/><linearGradient id="linear-gradient-46" x1="430.37" y1="-11.95" x2="430.37" y2="1126.9" xlink:href="#linear-gradient"/><linearGradient id="linear-gradient-47" x1="448.94" y1="-11.95" x2="448.94" y2="1126.9" xlink:href="#linear-gradient"/><linearGradient id="linear-gradient-51" x1="217.42" y1="-11.95" x2="217.42" y2="1126.9" xlink:href="#linear-gradient"/><linearGradient id="linear-gradient-52" x1="703.56" y1="-11.95" x2="703.56" y2="1126.9" xlink:href="#linear-gradient"/><linearGradient id="linear-gradient-53" x1="573.66" y1="-11.95" x2="573.66" y2="1126.9" xlink:href="#linear-gradient"/><linearGradient id="linear-gradient-54" x1="787.58" y1="-11.95" x2="787.58" y2="1126.9" xlink:href="#linear-gradient"/></defs><g id="Layer_2" data-name="Layer 2"><g id="Layer_1-2" data-name="Layer 1"><path class="cls-2" d="M1002.5,100.22c0,54-223.86,97.71-500,97.71-135.89,0-259.12-10.59-349.24-27.79C60.24,152.4,2.5,127.63,2.5,100.22,2.5,59.5,226.36,2.5,502.5,2.5S1002.5,46.25,1002.5,100.22Z" transform="translate(0 112.73)"/><g class="cls-3"><path class="cls-4" d="M502.5,200.43c-23.95,0-46.48-1.27-63.44-3.59-24.94-3.41-28.3-7.53-28.3-11.1s3.36-7.69,28.3-11.1c17-2.32,39.49-3.59,63.44-3.59s46.48,1.27,63.44,3.59c24.94,3.41,28.3,7.52,28.3,11.1s-3.36,7.69-28.3,11.1C549,199.16,526.45,200.43,502.5,200.43ZM416,185.74c1,.91,5.9,3.88,26.06,6.45,16.46,2.09,37.93,3.24,60.47,3.24s44-1.15,60.47-3.24c20.16-2.57,25-5.54,26.06-6.45-1-.91-5.9-3.88-26.06-6.45-16.46-2.09-37.94-3.24-60.47-3.24s-44,1.15-60.47,3.24C421.87,181.86,417,184.83,416,185.74Z" transform="translate(0 112.73)"/><path class="cls-4" d="M502.5,200.43c-63.72,0-123.66-5.07-168.76-14.27C301,179.48,262,167.68,262,149.37s39-30.12,71.7-36.79c45.1-9.21,105-14.28,168.76-14.28s123.66,5.07,168.76,14.28C704,119.25,743,131.06,743,149.37s-39,30.11-71.7,36.79C626.16,195.36,566.22,200.43,502.5,200.43Zm0-97.13C361.65,103.3,267,127.12,267,149.37s94.61,46.06,235.46,46.06S738,171.61,738,149.37,643.35,103.3,502.5,103.3Z" transform="translate(0 112.73)"/><path class="cls-5" d="M502.5,7.5C635.74,7.5,761,17.63,855.09,36c45.53,8.9,81.2,19.22,106,30.69,23.81,11,36.39,22.58,36.39,33.5s-12.58,22.49-36.39,33.49c-24.82,11.47-60.49,21.8-106,30.69C761,182.8,635.74,192.93,502.5,192.93S244,182.8,149.91,164.4c-45.53-8.89-81.2-19.22-106-30.69-23.81-11-36.39-22.58-36.39-33.49s12.58-22.5,36.39-33.5c24.82-11.47,60.49-21.79,106-30.69C244,17.63,369.26,7.5,502.5,7.5m0-5c-276.14,0-500,43.75-500,97.72s223.86,97.71,500,97.71,500-43.75,500-97.71S778.64,2.5,502.5,2.5Z" transform="translate(0 112.73)"/><path class="cls-6" d="M502.5,200.43c-91.1,0-176.76-7.56-241.22-21.28-46.39-9.87-101.69-27.21-101.69-53.69s55.3-43.81,101.69-53.69C325.74,58.05,411.4,50.49,502.5,50.49s176.76,7.56,241.22,21.28C790.11,81.65,845.41,99,845.41,125.46s-55.3,43.82-101.69,53.69C679.26,192.87,593.6,200.43,502.5,200.43Zm0-144.94c-90.76,0-176.06,7.52-240.18,21.17-62.11,13.22-97.73,31-97.73,48.8s35.62,35.58,97.73,48.8c64.12,13.65,149.42,21.17,240.18,21.17s176.06-7.52,240.18-21.17c62.11-13.22,97.73-31,97.73-48.8s-35.62-35.58-97.73-48.8C678.56,63,593.26,55.49,502.5,55.49Z" transform="translate(0 112.73)"/><rect class="cls-6" x="500" y="1.56" width="5" height="309.11"/><path class="cls-7" d="M481.17,197.56l-5-.14c0-.41,1-41.79-12-100.08C452.23,43.59,425.65-35.94,366.9-109.61l3.9-3.12C430.19-38.25,457,42.11,469.1,96.41,482.17,155.27,481.19,197.15,481.17,197.56Z" transform="translate(0 112.73)"/><path class="cls-8" d="M452.47,197.61c-.08-.52-8.69-52.33-55.86-103.43C353.05,47,266.7-9.3,102.74-9.3v-5c73.21,0,137.4,11.05,190.78,32.85C336.33,36,372.32,60.41,400.5,91c48.07,52.21,56.82,105.29,56.91,105.82Z" transform="translate(0 112.73)"/><path class="cls-9" d="M412,187.88c-92.12-55.25-198.49-75.46-271.5-82.7C61.32,97.34,3.31,102.65,2.74,102.71l-.48-5c.59-.06,59.08-5.41,138.7,2.48a788.08,788.08,0,0,1,133.23,24.44c52.09,14.5,99.31,34.33,140.36,58.94Z" transform="translate(0 112.73)"/><path class="cls-10" d="M522.38,197.56c0-.41-1-42.29,12.08-101.15,12.06-54.3,38.9-134.66,98.29-209.14l3.91,3.12C577.87-35.88,551.28,43.71,539.34,97.5c-12.94,58.26-12,99.51-12,99.92Z" transform="translate(0 112.73)"/><path class="cls-11" d="M551.09,197.61l-4.94-.77c.08-.53,8.84-53.61,56.9-105.82,28.18-30.61,64.18-55,107-72.47C763.41-3.25,827.6-14.3,900.81-14.3v5C736.66-9.3,650.28,47.1,606.73,94.41,559.68,145.51,551.17,197.1,551.09,197.61Z" transform="translate(0 112.73)"/><path class="cls-12" d="M591.58,187.88,589,183.59c41-24.61,88.27-44.44,140.36-58.94A788.08,788.08,0,0,1,862.6,100.21c79.62-7.89,138.11-2.54,138.69-2.48l-.47,5c-.58-.06-58.68-5.37-137.85,2.49C790,112.43,683.67,132.65,591.58,187.88Z" transform="translate(0 112.73)"/><path class="cls-4" d="M502.5,200.43c-23.95,0-46.48-1.27-63.44-3.59-24.94-3.41-28.3-7.53-28.3-11.1s3.36-7.69,28.3-11.1c17-2.32,39.49-3.59,63.44-3.59s46.48,1.27,63.44,3.59c24.94,3.41,28.3,7.52,28.3,11.1s-3.36,7.69-28.3,11.1C549,199.16,526.45,200.43,502.5,200.43ZM416,185.74c1,.91,5.9,3.88,26.06,6.45,16.46,2.09,37.93,3.24,60.47,3.24s44-1.15,60.47-3.24c20.16-2.57,25-5.54,26.06-6.45-1-.91-5.9-3.88-26.06-6.45-16.46-2.09-37.94-3.24-60.47-3.24s-44,1.15-60.47,3.24C421.87,181.86,417,184.83,416,185.74Z" transform="translate(0 112.73)"/><path class="cls-4" d="M502.5,200.43c-63.72,0-123.66-5.07-168.76-14.27C301,179.48,262,167.68,262,149.37s39-30.12,71.7-36.79c45.1-9.21,105-14.28,168.76-14.28s123.66,5.07,168.76,14.28C704,119.25,743,131.06,743,149.37s-39,30.11-71.7,36.79C626.16,195.36,566.22,200.43,502.5,200.43Zm0-97.13C361.65,103.3,267,127.12,267,149.37s94.61,46.06,235.46,46.06S738,171.61,738,149.37,643.35,103.3,502.5,103.3Z" transform="translate(0 112.73)"/><path class="cls-6" d="M502.5,200.43c-91.1,0-176.76-7.56-241.22-21.28-46.39-9.87-101.69-27.21-101.69-53.69s55.3-43.81,101.69-53.69C325.74,58.05,411.4,50.49,502.5,50.49s176.76,7.56,241.22,21.28C790.11,81.65,845.41,99,845.41,125.46s-55.3,43.82-101.69,53.69C679.26,192.87,593.6,200.43,502.5,200.43Zm0-144.94c-90.76,0-176.06,7.52-240.18,21.17-62.11,13.22-97.73,31-97.73,48.8s35.62,35.58,97.73,48.8c64.12,13.65,149.42,21.17,240.18,21.17s176.06-7.52,240.18-21.17c62.11-13.22,97.73-31,97.73-48.8s-35.62-35.58-97.73-48.8C678.56,63,593.26,55.49,502.5,55.49Z" transform="translate(0 112.73)"/><rect class="cls-6" x="500" y="1.56" width="5" height="309.11"/><path class="cls-7" d="M481.17,197.56l-5-.14c0-.41,1-41.79-12-100.08C452.23,43.59,425.65-35.94,366.9-109.61l3.9-3.12C430.19-38.25,457,42.11,469.1,96.41,482.17,155.27,481.19,197.15,481.17,197.56Z" transform="translate(0 112.73)"/><path class="cls-8" d="M452.47,197.61c-.08-.52-8.69-52.33-55.86-103.43C353.05,47,266.7-9.3,102.74-9.3v-5c73.21,0,137.4,11.05,190.78,32.85C336.33,36,372.32,60.41,400.5,91c48.07,52.21,56.82,105.29,56.91,105.82Z" transform="translate(0 112.73)"/><path class="cls-9" d="M412,187.88c-92.12-55.25-198.49-75.46-271.5-82.7C61.32,97.34,3.31,102.65,2.74,102.71l-.48-5c.59-.06,59.08-5.41,138.7,2.48a788.08,788.08,0,0,1,133.23,24.44c52.09,14.5,99.31,34.33,140.36,58.94Z" transform="translate(0 112.73)"/><path class="cls-10" d="M522.38,197.56c0-.41-1-42.29,12.08-101.15,12.06-54.3,38.9-134.66,98.29-209.14l3.91,3.12C577.87-35.88,551.28,43.71,539.34,97.5c-12.94,58.26-12,99.51-12,99.92Z" transform="translate(0 112.73)"/><path class="cls-11" d="M551.09,197.61l-4.94-.77c.08-.53,8.84-53.61,56.9-105.82,28.18-30.61,64.18-55,107-72.47C763.41-3.25,827.6-14.3,900.81-14.3v5C736.66-9.3,650.28,47.1,606.73,94.41,559.68,145.51,551.17,197.1,551.09,197.61Z" transform="translate(0 112.73)"/><path class="cls-12" d="M591.58,187.88,589,183.59c41-24.61,88.27-44.44,140.36-58.94A788.08,788.08,0,0,1,862.6,100.21c79.62-7.89,138.11-2.54,138.69-2.48l-.47,5c-.58-.06-58.68-5.37-137.85,2.49C790,112.43,683.67,132.65,591.58,187.88Z" transform="translate(0 112.73)"/></g><path class="cls-13" d="M1002.5,100.22c0,54-223.86,97.71-500,97.71-135.89,0-259.12-10.59-349.24-27.79C60.24,152.4,2.5,127.63,2.5,100.22,2.5,59.5,226.36,2.5,502.5,2.5S1002.5,46.25,1002.5,100.22Z" transform="translate(0 112.73)"/><rect class="cls-6" x="500" y="310.66" width="5" height="358.71"/><path class="cls-14" d="M421.52,556.86l-5-.43c.06-.68,5.58-69-20.7-149.68-24.21-74.28-81.17-174.53-215.06-230.25l1.92-4.61c59.92,24.93,109.76,60.69,148.15,106.28,30.72,36.48,54.2,79.28,69.8,127.22C427.19,487,421.58,556.17,421.52,556.86Z" transform="translate(0 112.73)"/><path class="cls-15" d="M451.53,556.65h-5c0-156-34.65-246.85-63.71-295.58-31.3-52.47-62.72-68.41-63-68.57L322,188c1.33.66,33.06,16.76,65.11,70.49,18.73,31.39,33.64,69.22,44.33,112.42C444.77,424.82,451.53,487.31,451.53,556.65Z" transform="translate(0 112.73)"/><path class="cls-16" d="M480,556.65h-5c0-155.48-11.15-244.94-20.5-292.61-10.16-51.8-20.47-66.89-20.58-67l4.07-2.9c.44.61,10.82,15.54,21.19,67.85C468.64,309.86,480,399.87,480,556.65Z" transform="translate(0 112.73)"/><path class="cls-17" d="M502.5,275.31c-194.5,0-215.85-34.05-216.66-35.5l2.18-1.23,2.15-1.27c.05.08,5.53,8.37,34.56,16.56,26.59,7.5,79,16.44,177.77,16.44Z" transform="translate(0 112.73)"/><path class="cls-18" d="M502.5,350.41c-89.54,0-139.93-20.09-140.43-20.29l1.88-4.64c.5.2,50.09,19.93,138.55,19.93Z" transform="translate(0 112.73)"/><path class="cls-19" d="M502.5,434.61c-58.38,0-102.64-19.16-103.08-19.35l2-4.58c.43.19,43.79,18.93,101.07,18.93Z" transform="translate(0 112.73)"/><rect class="cls-20" x="417.84" y="612.12" width="84.66" height="5"/><path class="cls-21" d="M583.48,556.86c-.06-.69-5.67-69.9,20.87-151.47,15.6-47.94,39.08-90.74,69.8-127.22,38.39-45.59,88.23-81.35,148.15-106.28l1.92,4.61c-133.89,55.72-190.85,156-215.06,230.25-26.28,80.64-20.76,149-20.7,149.68Z" transform="translate(0 112.73)"/><path class="cls-22" d="M558.46,556.65h-5c0-69.34,6.77-131.83,20.1-185.72,10.69-43.2,25.6-81,44.33-112.42C649.94,204.78,681.67,188.68,683,188l2.22,4.48-1.11-2.24,1.11,2.24c-.32.16-32,16.34-63.3,69C593,310.24,558.46,401,558.46,556.65Z" transform="translate(0 112.73)"/><path class="cls-23" d="M530,556.65h-5c0-156.78,11.32-246.79,20.82-294.7,10.37-52.31,20.75-67.24,21.19-67.85l4.06,2.91-2-1.46,2,1.45c-.11.15-10.42,15.24-20.58,67C541.19,311.71,530,401.17,530,556.65Z" transform="translate(0 112.73)"/><path class="cls-24" d="M502.5,275.31v-5c98.75,0,151.18-8.94,177.77-16.44,29-8.19,34.51-16.48,34.56-16.56l4.33,2.5C718.35,241.26,697,275.31,502.5,275.31Z" transform="translate(0 112.73)"/><path class="cls-25" d="M502.5,350.41v-5c88.46,0,138-19.73,138.54-19.93l1.89,4.64C642.43,330.32,592,350.41,502.5,350.41Z" transform="translate(0 112.73)"/><path class="cls-26" d="M502.5,434.61v-5c57.34,0,100.64-18.74,101.07-18.93l2,4.58C605.14,415.45,560.88,434.61,502.5,434.61Z" transform="translate(0 112.73)"/><rect class="cls-27" x="502.5" y="612.12" width="84.66" height="5"/><rect class="cls-6" x="500" y="661.23" width="5" height="554.15"/><path class="cls-24" d="M502.5,901.72v-5c98.75,0,151.18-8.94,177.77-16.44,29-8.19,34.51-16.48,34.56-16.57l4.33,2.5C718.35,867.66,697,901.72,502.5,901.72Z" transform="translate(0 112.73)"/><path class="cls-28" d="M502.5,796.5v-5c91,0,141.91-19.73,142.42-19.93l1.84,4.65C646.25,776.42,594.49,796.5,502.5,796.5Z" transform="translate(0 112.73)"/><path class="cls-29" d="M502.5,707.74v-5c59.6,0,104.72-18.76,105.17-19l1.94,4.61C609.15,688.59,563.16,707.74,502.5,707.74Z" transform="translate(0 112.73)"/><rect class="cls-27" x="502.5" y="713.49" width="84.66" height="5"/><path class="cls-30" d="M153.12,1077l-1.78-4.67c.73-.28,74.68-29.14,147.64-107.83,67.31-72.59,147.56-203.69,147.56-416h5c0,94.48-15.67,181-46.56,257.31-24.74,61-59.23,115.64-102.52,162.27C228.72,1047.53,153.87,1076.71,153.12,1077Z" transform="translate(0 112.73)"/><path class="cls-31" d="M387.2,1101.05l-4.47-2.24c.23-.46,23.32-47.21,46.11-138C449.88,877,475,737.39,475,548.5h5c0,189.52-25.19,329.59-46.33,413.72C410.71,1053.49,387.43,1100.58,387.2,1101.05Z" transform="translate(0 112.73)"/><path class="cls-17" d="M502.5,901.72c-194.5,0-215.85-34.06-216.66-35.51L288,865l2.15-1.28c.05.09,5.53,8.38,34.56,16.57,26.59,7.5,79,16.44,177.77,16.44Z" transform="translate(0 112.73)"/><path class="cls-32" d="M502.5,1024.37v-5c179.55,0,274.3-18.25,322.16-33.56,52-16.61,61.41-33.41,61.5-33.58l4.45,2.28c-.37.73-9.71,18.24-62.65,35.49C779.84,1005.68,684.31,1024.37,502.5,1024.37Z" transform="translate(0 112.73)"/><path class="cls-33" d="M502.5,1024.37c-181.81,0-277.34-18.69-325.46-34.37-52.94-17.25-62.28-34.76-62.65-35.49l4.45-2.28c.09.17,9.54,17,61.5,33.58,47.86,15.31,142.61,33.56,322.16,33.56Z" transform="translate(0 112.73)"/><path class="cls-34" d="M502.5,796.5c-92,0-143.75-20.08-144.26-20.28l1.84-4.65c.51.2,51.48,19.93,142.42,19.93Z" transform="translate(0 112.73)"/><path class="cls-35" d="M502.5,707.74c-60.67,0-106.66-19.15-107.11-19.34l1.94-4.61c.45.19,45.57,19,105.17,19Z" transform="translate(0 112.73)"/><rect class="cls-20" x="417.84" y="713.49" width="84.66" height="5"/><path class="cls-4" d="M502.5,1105.14c-133.71,0-259.44-10.18-354-28.66-46.12-9-82.36-19.53-107.73-31.25-27-12.49-40.74-26.05-40.74-40.3,0-7.72,4.07-15.31,12.09-22.57l.49-.45.64-.14c.85-.19,85.14-19.06,167.57-53.13,128-52.91,185.27-153.41,210.78-228.39,27.67-81.34,25-151,25-151.64l5-.22c0,.7,2.74,71.25-25.23,153.47-16.43,48.32-40.09,91.19-70.32,127.43-37.79,45.31-86,80.29-143.28,104C103.73,965.9,23.06,984.66,15,986.5c-6.61,6.13-10,12.33-10,18.43,0,24.41,52.64,48.7,144.43,66.64,94.28,18.43,219.67,28.57,353.07,28.57s258.79-10.14,353.07-28.57c91.79-17.94,144.43-42.23,144.43-66.64,0-6.25-3.51-12.59-10.44-18.87l3.35-3.7c8,7.26,12.09,14.85,12.09,22.57,0,14.25-13.71,27.81-40.74,40.3-25.37,11.72-61.61,22.23-107.73,31.25C761.94,1095,636.21,1105.14,502.5,1105.14Z" transform="translate(0 112.73)"/><path class="cls-4" d="M502.5,1105.14c-133.71,0-259.44-10.18-354-28.66-46.12-9-82.36-19.53-107.73-31.25-27-12.49-40.74-26.05-40.74-40.3,0-7.72,4.07-15.31,12.09-22.57l3.35,3.7C8.51,992.34,5,998.68,5,1004.93c0,24.41,52.64,48.7,144.43,66.64,94.28,18.43,219.67,28.57,353.07,28.57s258.79-10.14,353.07-28.57c91.79-17.94,144.43-42.23,144.43-66.64,0-6.25-3.51-12.59-10.44-18.87l3.35-3.7c8,7.26,12.09,14.85,12.09,22.57,0,14.25-13.71,27.81-40.74,40.3-25.37,11.72-61.61,22.23-107.73,31.25C761.94,1095,636.21,1105.14,502.5,1105.14Z" transform="translate(0 112.73)"/><path class="cls-36" d="M14.31,986.65l-1.09-4.88c.85-.19,85.14-19.06,167.57-53.13,128-52.91,185.27-153.41,210.78-228.39,27.67-81.34,25-151,25-151.64l5-.22c0,.7,2.74,71.25-25.23,153.47-16.43,48.32-40.09,91.19-70.32,127.43-37.79,45.31-86,80.29-143.28,104C99.86,967.5,15.15,986.46,14.31,986.65Z" transform="translate(0 112.73)"/><path class="cls-37" d="M851.88,1077c-.75-.28-75.6-29.46-149.35-108.91C659.25,921.45,624.76,866.85,600,805.81,569.13,729.55,553.46,643,553.46,548.5h5c0,212.43,80.34,343.58,147.74,416.18,73,78.6,146.73,107.36,147.46,107.64Z" transform="translate(0 112.73)"/><path class="cls-38" d="M617.8,1101.05c-.23-.47-23.51-47.56-46.44-138.83C550.23,878.09,525,738,525,548.5h5c0,188.89,25.08,328.46,46.12,412.28,22.79,90.82,45.88,137.57,46.11,138Z" transform="translate(0 112.73)"/><path class="cls-39" d="M990.69,986.65c-.84-.19-85.55-19.15-168.39-53.39C765,909.58,716.81,874.6,679,829.29c-30.23-36.24-53.89-79.11-70.32-127.43-28-82.22-25.26-152.77-25.23-153.47l5,.22c0,.69-2.69,70.45,25,151.81C639,775.34,696.28,875.76,824.21,928.64c82.43,34.07,166.72,52.94,167.57,53.13Z" transform="translate(0 112.73)"/></g></g></svg>