<svg xmlns="http://www.w3.org/2000/svg" xmlns:xlink="http://www.w3.org/1999/xlink" viewBox="0 0 268.07 383.53"><defs><style>.cls-1,.cls-10,.cls-11,.cls-15,.cls-2,.cls-8{fill:none;}.cls-2{stroke:#231f20;stroke-width:0.3px;}.cls-3{isolation:isolate;}.cls-4{fill:#010e1f;}.cls-5{fill:#5dc2a6;}.cls-6{fill:#ff4fc2;}.cls-7{mix-blend-mode:multiply;fill:url(#Hatching_Double);}.cls-15,.cls-8{stroke:#fff;}.cls-10,.cls-11,.cls-15,.cls-8{stroke-linecap:round;stroke-linejoin:round;}.cls-8{stroke-width:4.23px;}.cls-9{clip-path:url(#clip-path);}.cls-10{stroke:#e51491;stroke-width:12.18px;}.cls-11{stroke:#010e1f;stroke-width:7.05px;}.cls-12{fill:#f9ef91;}.cls-13{fill:#f7941e;}.cls-14{fill:#e51491;}.cls-15{stroke-width:4.06px;}</style><pattern id="Hatching_Double" data-name="Hatching Double" width="72" height="72" patternTransform="translate(0 -144)" patternUnits="userSpaceOnUse" viewBox="0 0 72 72"><rect class="cls-1" width="72" height="72"/><line class="cls-2" x1="63.7" y1="76.7" x2="67.18" y2="70.62"/><line class="cls-2" x1="65.44" y1="69.63" x2="61.96" y2="75.7"/><line class="cls-2" x1="49" y1="77.5" x2="46.62" y2="70.92"/><line class="cls-2" x1="44.74" y1="71.6" x2="47.12" y2="78.18"/><line class="cls-2" x1="36.43" y1="75.84" x2="38.15" y2="69.05"/><line class="cls-2" x1="36.21" y1="68.56" x2="34.49" y2="75.35"/><line class="cls-2" x1="14.87" y1="75.31" x2="16.78" y2="68.58"/><line class="cls-2" x1="14.85" y1="68.03" x2="12.95" y2="74.77"/><line class="cls-2" x1="8.79" y1="74.93" x2="6.77" y2="68.22"/><line class="cls-2" x1="4.85" y1="68.8" x2="6.87" y2="75.5"/><line class="cls-2" x1="51.02" y1="69.29" x2="55.45" y2="74.71"/><line class="cls-2" x1="57" y1="73.44" x2="52.57" y2="68.03"/><line class="cls-2" x1="71.73" y1="26.3" x2="78.25" y2="23.75"/><line class="cls-2" x1="-0.27" y1="26.3" x2="6.25" y2="23.75"/><line class="cls-2" x1="4.19" y1="40.15" x2="1.63" y2="46.66"/><line class="cls-2" x1="3.49" y1="47.39" x2="6.05" y2="40.88"/><line class="cls-2" x1="69.21" y1="5.66" x2="75.38" y2="8.98"/><line class="cls-2" x1="76.32" y1="7.22" x2="70.16" y2="3.9"/><line class="cls-2" x1="69.26" y1="20.09" x2="74.56" y2="15.52"/><line class="cls-2" x1="73.25" y1="14" x2="67.95" y2="18.58"/><line class="cls-2" x1="71.73" y1="26.3" x2="78.25" y2="23.75"/><line class="cls-2" x1="77.52" y1="21.89" x2="71" y2="24.44"/><line class="cls-2" x1="68.93" y1="34.91" x2="75.75" y2="36.45"/><line class="cls-2" x1="76.2" y1="34.5" x2="69.37" y2="32.96"/><line class="cls-2" x1="68.96" y1="56.28" x2="75.75" y2="58"/><line class="cls-2" x1="76.24" y1="56.06" x2="69.46" y2="54.34"/><line class="cls-2" x1="70" y1="66.25" x2="76.65" y2="64.06"/><line class="cls-2" x1="76.02" y1="62.16" x2="69.37" y2="64.35"/><line class="cls-2" x1="63.7" y1="4.7" x2="67.18" y2="-1.38"/><line class="cls-2" x1="65.44" y1="-2.37" x2="61.96" y2="3.7"/><line class="cls-2" x1="49" y1="5.5" x2="46.62" y2="-1.08"/><line class="cls-2" x1="44.74" y1="-0.4" x2="47.12" y2="6.18"/><line class="cls-2" x1="36.43" y1="3.84" x2="38.15" y2="-2.95"/><line class="cls-2" x1="36.21" y1="-3.44" x2="34.49" y2="3.35"/><line class="cls-2" x1="30.79" y1="3.68" x2="24.34" y2="0.95"/><line class="cls-2" x1="23.56" y1="2.79" x2="30" y2="5.53"/><line class="cls-2" x1="14.87" y1="3.31" x2="16.78" y2="-3.42"/><line class="cls-2" x1="14.85" y1="-3.97" x2="12.95" y2="2.77"/><line class="cls-2" x1="8.79" y1="2.93" x2="6.77" y2="-3.78"/><line class="cls-2" x1="4.85" y1="-3.2" x2="6.87" y2="3.5"/><line class="cls-2" x1="65.44" y1="69.63" x2="61.96" y2="75.7"/><line class="cls-2" x1="63.7" y1="76.7" x2="67.18" y2="70.62"/><line class="cls-2" x1="51.02" y1="69.29" x2="55.45" y2="74.71"/><line class="cls-2" x1="57" y1="73.44" x2="52.57" y2="68.03"/><line class="cls-2" x1="44.74" y1="71.6" x2="47.12" y2="78.18"/><line class="cls-2" x1="49" y1="77.5" x2="46.62" y2="70.92"/><line class="cls-2" x1="36.21" y1="68.56" x2="34.49" y2="75.35"/><line class="cls-2" x1="36.43" y1="75.84" x2="38.15" y2="69.05"/><line class="cls-2" x1="14.85" y1="68.03" x2="12.95" y2="74.77"/><line class="cls-2" x1="14.87" y1="75.31" x2="16.78" y2="68.58"/><line class="cls-2" x1="4.85" y1="68.8" x2="6.87" y2="75.5"/><line class="cls-2" x1="8.79" y1="74.93" x2="6.77" y2="68.22"/><line class="cls-2" x1="18.44" y1="47.13" x2="14.96" y2="53.2"/><line class="cls-2" x1="16.7" y1="54.2" x2="20.18" y2="48.12"/><line class="cls-2" x1="48.5" y1="14.94" x2="44.07" y2="9.53"/><line class="cls-2" x1="42.52" y1="10.79" x2="46.95" y2="16.21"/><line class="cls-2" x1="36.24" y1="13.1" x2="38.62" y2="19.68"/><line class="cls-2" x1="40.5" y1="19" x2="38.12" y2="12.42"/><line class="cls-2" x1="62.79" y1="61.18" x2="56.34" y2="58.45"/><line class="cls-2" x1="55.56" y1="60.29" x2="62" y2="63.03"/><line class="cls-2" x1="62.98" y1="43.22" x2="61.08" y2="49.96"/><line class="cls-2" x1="63" y1="50.5" x2="64.9" y2="43.77"/><line class="cls-2" x1="52.57" y1="37.87" x2="54.58" y2="44.58"/><line class="cls-2" x1="56.5" y1="44" x2="54.48" y2="37.3"/><line class="cls-2" x1="33.02" y1="32.58" x2="36.5" y2="26.5"/><line class="cls-2" x1="34.76" y1="25.51" x2="31.29" y2="31.58"/><line class="cls-2" x1="18.52" y1="25.79" x2="22.95" y2="31.21"/><line class="cls-2" x1="24.5" y1="29.94" x2="20.07" y2="24.53"/><line class="cls-2" x1="10.74" y1="27.6" x2="13.12" y2="34.18"/><line class="cls-2" x1="15" y1="33.5" x2="12.62" y2="26.92"/><line class="cls-2" x1="62.71" y1="25.56" x2="60.99" y2="32.35"/><line class="cls-2" x1="62.93" y1="32.84" x2="64.65" y2="26.05"/><line class="cls-2" x1="46.89" y1="29.19" x2="53.34" y2="31.93"/><line class="cls-2" x1="54.12" y1="30.09" x2="47.67" y2="27.35"/><line class="cls-2" x1="30.07" y1="59.37" x2="32.08" y2="66.08"/><line class="cls-2" x1="34" y1="65.5" x2="31.98" y2="58.8"/><line class="cls-2" x1="48.97" y1="60.45" x2="42.04" y2="61.42"/><line class="cls-2" x1="42.32" y1="63.4" x2="49.25" y2="62.43"/><line class="cls-2" x1="49.11" y1="48.23" x2="47.55" y2="55.05"/><line class="cls-2" x1="49.5" y1="55.5" x2="51.06" y2="48.68"/><line class="cls-2" x1="30.22" y1="45.3" x2="26.48" y2="51.22"/><line class="cls-2" x1="28.17" y1="52.29" x2="31.91" y2="46.37"/><line class="cls-2" x1="31.89" y1="36.7" x2="25.47" y2="39.5"/><line class="cls-2" x1="26.28" y1="41.34" x2="32.69" y2="38.54"/><line class="cls-2" x1="18.37" y1="42.31" x2="20.28" y2="35.58"/><line class="cls-2" x1="18.35" y1="35.03" x2="16.45" y2="41.77"/><line class="cls-2" x1="43.92" y1="38.92" x2="41.9" y2="32.22"/><line class="cls-2" x1="39.98" y1="32.8" x2="42" y2="39.5"/><line class="cls-2" x1="30.2" y1="15.76" x2="24.61" y2="19.97"/><line class="cls-2" x1="25.82" y1="21.57" x2="31.41" y2="17.36"/><line class="cls-2" x1="20.94" y1="15.94" x2="18.99" y2="9.22"/><line class="cls-2" x1="17.07" y1="9.77" x2="19.02" y2="16.5"/><line class="cls-2" x1="10.4" y1="9.42" x2="9.99" y2="16.41"/><line class="cls-2" x1="11.99" y1="16.53" x2="12.39" y2="9.54"/><line class="cls-2" x1="23.25" y1="57.28" x2="19" y2="62.84"/><line class="cls-2" x1="20.58" y1="64.05" x2="24.84" y2="58.49"/><line class="cls-2" x1="15.46" y1="61.69" x2="10.61" y2="56.64"/><line class="cls-2" x1="9.17" y1="58.03" x2="14.01" y2="63.08"/><line class="cls-2" x1="55.5" y1="24.5" x2="59.9" y2="19.06"/><line class="cls-2" x1="58.35" y1="17.8" x2="53.95" y2="23.24"/><line class="cls-2" x1="58.53" y1="14.33" x2="59.31" y2="7.38"/><line class="cls-2" x1="57.33" y1="7.15" x2="56.54" y2="14.11"/><line class="cls-2" x1="35.56" y1="49.29" x2="42" y2="52.03"/><line class="cls-2" x1="42.79" y1="50.18" x2="36.34" y2="47.45"/><line class="cls-2" x1="51.02" y1="-2.71" x2="55.45" y2="2.71"/><line class="cls-2" x1="57" y1="1.44" x2="52.57" y2="-3.97"/><line class="cls-2" x1="-2.79" y1="5.66" x2="3.38" y2="8.98"/><line class="cls-2" x1="4.32" y1="7.22" x2="-1.84" y2="3.9"/><line class="cls-2" x1="-2.74" y1="20.09" x2="2.56" y2="15.52"/><line class="cls-2" x1="1.25" y1="14" x2="-4.05" y2="18.58"/><line class="cls-2" x1="-0.27" y1="26.3" x2="6.25" y2="23.75"/><line class="cls-2" x1="5.52" y1="21.89" x2="-1" y2="24.44"/><line class="cls-2" x1="-3.07" y1="34.91" x2="3.75" y2="36.45"/><line class="cls-2" x1="4.2" y1="34.5" x2="-2.63" y2="32.96"/><line class="cls-2" x1="-3.04" y1="56.28" x2="3.75" y2="58"/><line class="cls-2" x1="4.24" y1="56.06" x2="-2.54" y2="54.34"/><line class="cls-2" x1="-2" y1="66.25" x2="4.65" y2="64.06"/><line class="cls-2" x1="4.02" y1="62.16" x2="-2.63" y2="64.35"/><line class="cls-2" x1="65.44" y1="-2.37" x2="61.96" y2="3.7"/><line class="cls-2" x1="63.7" y1="4.7" x2="67.18" y2="-1.38"/><line class="cls-2" x1="51.02" y1="-2.71" x2="55.45" y2="2.71"/><line class="cls-2" x1="57" y1="1.44" x2="52.57" y2="-3.97"/><line class="cls-2" x1="44.74" y1="-0.4" x2="47.12" y2="6.18"/><line class="cls-2" x1="49" y1="5.5" x2="46.62" y2="-1.08"/><line class="cls-2" x1="36.21" y1="-3.44" x2="34.49" y2="3.35"/><line class="cls-2" x1="36.43" y1="3.84" x2="38.15" y2="-2.95"/><line class="cls-2" x1="14.85" y1="-3.97" x2="12.95" y2="2.77"/><line class="cls-2" x1="14.87" y1="3.31" x2="16.78" y2="-3.42"/><line class="cls-2" x1="4.85" y1="-3.2" x2="6.87" y2="3.5"/><line class="cls-2" x1="8.79" y1="2.93" x2="6.77" y2="-3.78"/></pattern><clipPath id="clip-path"><path class="cls-1" d="M45.18,376S-47.92,161.52,110.07,3.53l103.4,257.24S127,274.38,45.18,376Z"/></clipPath></defs><g class="cls-3"><g id="Layer_2" data-name="Layer 2"><g id="Layer_8" data-name="Layer 8"><path class="cls-4" d="M45.18,376S-47.92,161.52,110.07,3.53l103.4,257.24S127,274.38,45.18,376Z"/><path class="cls-5" d="M163.31,136,110.07,3.53C35.35,78.25,16.79,165.6,18,236.91,70.5,168.49,147.58,138.82,163.31,136Z"/><path class="cls-6" d="M135.72,67.34,110.07,3.53C69.62,44,45.63,88.14,32.32,131.45A247.38,247.38,0,0,1,135.72,67.34Z"/><path class="cls-7" d="M135.72,67.34,110.07,3.53C69.62,44,45.63,88.14,32.32,131.45A247.38,247.38,0,0,1,135.72,67.34Z"/><path class="cls-4" d="M268.07,383.05S74.34,384.66,31.58,382C-2.43,379.88,0,376,0,376h268Z"/><path class="cls-8" d="M17.93,290.19S112.09,237.54,224,254.47"/><g class="cls-9"><path class="cls-10" d="M28.78,251.56s3.6-45.69,20.23-86.33c50.5-123.44,19.41,99.06,56.49,26.5,18.87-36.94,3-102.91,41.85-113.9"/></g><path class="cls-11" d="M45.18,376S-47.92,161.52,110.07,3.53"/><path class="cls-12" d="M145.41,235.13C156.74,233.67,165,229.23,165,224h-40.6v10.31a59.92,59.92,0,0,0,12.91,1.35A64,64,0,0,0,145.41,235.13Z"/><path class="cls-13" d="M90.09,351.52,108.63,367l-17.06,9.28a1,1,0,0,0,.45,1.8h26.47a2.88,2.88,0,0,0,2.87-2.88v-2.66l-3.44-6.32-8.77-16.1a5.75,5.75,0,0,1,.92-6.75l21.32-22H106L89.18,343.65A5.75,5.75,0,0,0,90.09,351.52Z"/><path class="cls-13" d="M137.27,321.36l21.32,22a5.75,5.75,0,0,1,.92,6.75l-8.77,16.1-3.32,6.1v2.88a2.87,2.87,0,0,0,2.87,2.88h26.47a1,1,0,0,0,.45-1.8L160.07,367l18.5-15.45a5.75,5.75,0,0,0,.91-7.87l-25.17-33.43,0,0,8.41,11.12Z"/><path class="cls-13" d="M216.19,251a2.41,2.41,0,0,0-3.58.09l-2.17,2.53-.35.41a2.15,2.15,0,0,1-3,.23h0a5.74,5.74,0,0,1-1-2.15l1.11-1.29,4.31-5a2.9,2.9,0,0,0-.09-3.85,2.7,2.7,0,0,0-3.93.2l-8.13,2-3.57,4.16a2.89,2.89,0,0,0,.31,4.06l.81.69.1.09-16.83,14.81v-4.81h0v-9.28a2.79,2.79,0,0,0-2.79-2.8h-32V235.13a64,64,0,0,1-8.13.51,59.92,59.92,0,0,1-12.91-1.35V251H92.44a2.79,2.79,0,0,0-2.79,2.8v1.17h0v17.64l-17.24,0,.69-.59.8-.69a2.89,2.89,0,0,0,.32-4.07l-3.57-4.15-8.13-2a2.72,2.72,0,0,0-3.94-.2,2.87,2.87,0,0,0-.08,3.84l4.31,5,1.1,1.29a2.66,2.66,0,0,1-1,2.15h0a2.14,2.14,0,0,1-3-.23l-.35-.41-2.17-2.53a2.41,2.41,0,0,0-3.58-.09,2.5,2.5,0,0,0,0,3.33l2.08,2.43,3.56,4.16.31.35a2.42,2.42,0,0,0,3.4.27l.06-.06h0l1.57-1.34,26.66,18.35a5.75,5.75,0,0,0,9.59-1.33l8.76-19,.64-1.38,13.88,21.33h20.08l14.55-22.35,1.11,2.4,8.76,19a5.75,5.75,0,0,0,9.59,1.33l25.87-38.22,2.53,2.17h0l.06.06a2.42,2.42,0,0,0,3.4-.26l.31-.36,3.56-4.16,2.08-2.43A2.5,2.5,0,0,0,216.19,251Zm-74.76-9.45v6.71h-8.29C133.14,239.59,141.43,241.5,141.43,241.5Z"/><polygon class="cls-14" points="105.92 321.36 105.97 321.36 131.39 321.36 137.27 321.36 162.68 321.36 154.27 310.24 144.32 297.09 124.28 297.09 105.92 321.36"/><path class="cls-4" d="M141.43,238.88s-11.53-2.66-11.53,9.33h11.53Z"/><path class="cls-4" d="M141.43,241.5s-8.29-1.91-8.29,6.71h8.29Z"/><path class="cls-8" d="M52.06,275q4.17-1.58,8.39-3.06"/><path class="cls-14" d="M141.43,244.77H139c-1.9,0-4.39,1.54-4.39,3.44h6.82Z"/><path class="cls-15" d="M210,252.71q6.74.69,13.57,1.72"/></g></g></g></svg>