<svg xmlns="http://www.w3.org/2000/svg" viewBox="0 0 183.71 91.86"><defs><style>.cls-1{fill:#e3272f;}.cls-2{fill:none;stroke:#991a20;stroke-linecap:round;stroke-linejoin:round;stroke-width:1.26px;}</style></defs><g id="Layer_2" data-name="Layer 2"><g id="Ref"><path class="cls-1" d="M0,91.86H91.86S43.09,48.76,0,91.86Z"/><path class="cls-1" d="M26.9,26.9c0,61,65,65,65,65S87.85,26.9,26.9,26.9Z"/><path class="cls-1" d="M91.86,0c-43.1,43.09,0,91.86,0,91.86S135,43.09,91.86,0Z"/><path class="cls-1" d="M156.81,26.9c-60.94,0-64.95,65-64.95,65S156.81,87.85,156.81,26.9Z"/><path class="cls-1" d="M26.9,26.9c0,61,65,65,65,65S87.85,26.9,26.9,26.9Z"/><path class="cls-1" d="M26.9,26.9c0,61,65,65,65,65S87.85,26.9,26.9,26.9Z"/><path class="cls-1" d="M91.86,0c-43.1,43.09,0,91.86,0,91.86S135,43.09,91.86,0Z"/><path class="cls-1" d="M156.81,26.9c-60.94,0-64.95,65-64.95,65S156.81,87.85,156.81,26.9Z"/><path class="cls-1" d="M183.71,91.86c-43.09-43.1-91.85,0-91.85,0Z"/><line class="cls-2" x1="91.36" y1="90.9" x2="91.36" y2="9.34"/><line class="cls-2" x1="36.14" y1="90.9" x2="26.33" y2="81.09"/><line class="cls-2" x1="47.54" y1="90.9" x2="37.73" y2="81.09"/><line class="cls-2" x1="58.95" y1="90.9" x2="49.13" y2="81.09"/><line class="cls-2" x1="147.57" y1="90.9" x2="157.39" y2="81.09"/><line class="cls-2" x1="136.17" y1="90.9" x2="145.99" y2="81.09"/><line class="cls-2" x1="124.77" y1="90.9" x2="134.58" y2="81.09"/><line class="cls-2" x1="82.09" y1="26.9" x2="91.86" y2="36.67"/><line class="cls-2" x1="91.86" y1="36.67" x2="101.67" y2="26.85"/><line class="cls-2" x1="82.09" y1="38.31" x2="91.86" y2="48.07"/><line class="cls-2" x1="91.86" y1="48.07" x2="101.67" y2="38.25"/><line class="cls-2" x1="82.09" y1="49.71" x2="91.86" y2="59.47"/><line class="cls-2" x1="91.86" y1="59.47" x2="101.67" y2="49.66"/><line class="cls-2" x1="91.86" y1="90.9" x2="91.86" y2="9.34"/><line class="cls-2" x1="39.7" y1="52.55" x2="53.51" y2="52.55"/><line class="cls-2" x1="53.51" y1="52.55" x2="53.51" y2="38.67"/><line class="cls-2" x1="47.76" y1="60.62" x2="61.57" y2="60.62"/><line class="cls-2" x1="61.57" y1="60.62" x2="61.57" y2="46.73"/><line class="cls-2" x1="55.83" y1="68.68" x2="69.63" y2="68.68"/><line class="cls-2" x1="69.63" y1="68.68" x2="69.63" y2="54.8"/><line class="cls-2" x1="91.86" y1="90.9" x2="34.18" y2="33.23"/><line class="cls-2" x1="130.21" y1="38.75" x2="130.21" y2="52.55"/><line class="cls-2" x1="130.21" y1="52.55" x2="144.09" y2="52.55"/><line class="cls-2" x1="122.15" y1="46.81" x2="122.15" y2="60.62"/><line class="cls-2" x1="122.15" y1="60.62" x2="136.03" y2="60.62"/><line class="cls-2" x1="114.08" y1="54.87" x2="114.08" y2="68.68"/><line class="cls-2" x1="114.08" y1="68.68" x2="127.96" y2="68.68"/><line class="cls-2" x1="91.86" y1="90.9" x2="149.53" y2="33.23"/></g></g></svg>