<svg xmlns="http://www.w3.org/2000/svg" viewBox="0 0 196.01 400.23"><defs><style>.cls-1{fill:#b06d38;}.cls-2{fill:#573218;}.cls-3{fill:#b5f930;}.cls-4,.cls-5{fill:none;stroke-linecap:round;stroke-linejoin:round;stroke-width:1.54px;}.cls-4{stroke:#6b3e1e;}.cls-5{stroke:#5b6628;}</style></defs><g id="Layer_2" data-name="Layer 2"><g id="Layer_6" data-name="Layer 6"><polygon class="cls-1" points="142.94 400.23 114.89 102.87 86.84 400.23 142.94 400.23"/><circle class="cls-2" cx="109.13" cy="123.72" r="11.02"/><circle class="cls-2" cx="126.71" cy="121.71" r="8.18"/><path class="cls-3" d="M113.73,113.73l-49,49S51.64,113.73,113.73,113.73Z"/><path class="cls-3" d="M113.73,113.73h69.36S157.63,157.63,113.73,113.73Z"/><path class="cls-3" d="M0,113.73s41.75-72,113.73,0H0"/><path class="cls-3" d="M33.31,33.31s80.42-21.38,80.42,80.42L33.31,33.31"/><path class="cls-3" d="M113.73,0s72,41.75,0,113.73V0"/><path class="cls-3" d="M194.14,33.31s21.38,80.42-80.41,80.42l80.41-80.42"/><line class="cls-4" x1="140.45" y1="381.83" x2="89.32" y2="381.83"/><line class="cls-4" x1="136.77" y1="321.24" x2="93.01" y2="321.24"/><line class="cls-4" x1="132.73" y1="270.19" x2="97.04" y2="270.19"/><line class="cls-4" x1="127.57" y1="214.77" x2="101.89" y2="214.77"/><line class="cls-4" x1="122.03" y1="155.69" x2="107.36" y2="155.69"/><path class="cls-5" d="M113.73,113.73s-8.07-49.38-50.19-71.95"/><polyline class="cls-5" points="91.68 50.61 91.68 65.63 69.24 65.63"/><polyline class="cls-5" points="96.04 59.73 96.04 71.53 83.99 71.53"/><polyline class="cls-5" points="107.36 81.73 107.36 92.83 98.12 92.83"/><path class="cls-5" d="M113.73,113.73s29.21-40.63,15.38-86.36"/><polyline class="cls-5" points="142.77 53.51 132.15 64.13 116.28 48.26"/><polyline class="cls-5" points="139.4 63.04 131.06 71.38 122.54 62.86"/><polyline class="cls-5" points="131.85 86.61 124 94.45 117.46 87.91"/><path class="cls-5" d="M113.73,113.73s49.38-8.07,71.94-50.19"/><polyline class="cls-5" points="176.84 91.68 161.82 91.68 161.82 69.24"/><polyline class="cls-5" points="167.72 96.04 155.93 96.04 155.93 83.99"/><polyline class="cls-5" points="145.72 107.36 134.62 107.36 134.62 98.12"/><path class="cls-5" d="M113.73,113.73S73.26,84.3,27.45,97.89"/><polyline class="cls-5" points="53.66 84.37 64.23 95.04 48.27 110.83"/><polyline class="cls-5" points="63.18 87.78 71.47 96.17 62.91 104.65"/><polyline class="cls-5" points="86.7 95.46 94.5 103.35 87.93 109.85"/></g></g></svg>