<svg xmlns="http://www.w3.org/2000/svg" viewBox="0 0 116.57 39.53"><defs><style>.cls-1{fill:#2970e2;}.cls-2{fill:none;stroke:#2970e2;stroke-miterlimit:10;stroke-width:1.14px;}</style></defs><g id="Layer_2" data-name="Layer 2"><g id="Layer_6" data-name="Layer 6"><path class="cls-1" d="M53.75,18.44a23.65,23.65,0,0,1,46.14,0Z"/><path class="cls-2" d="M102,10.61h7.15A6.87,6.87,0,0,1,116,17.47h0a6.87,6.87,0,0,1-6.87,6.87H43.79a6.87,6.87,0,0,1-6.87-6.87h0a6.87,6.87,0,0,1,6.87-6.86h8.12"/><path class="cls-1" d="M10,35.66a13.22,13.22,0,0,1,25.78,0Z"/><path class="cls-2" d="M36.92,31.28h4a3.84,3.84,0,0,1,3.84,3.84h0A3.84,3.84,0,0,1,40.91,39H4.41A3.84,3.84,0,0,1,.57,35.12h0a3.84,3.84,0,0,1,3.84-3.84H9"/></g></g></svg>